<svg width="20" height="24" viewBox="0 0 20 24" fill="none" xmlns="http://www.w3.org/2000/svg">
<path d="M16.0925 12.7629C16.1164 10.8932 17.0836 9.16616 18.6555 8.18685C17.6593 6.74516 16.0507 5.86387 14.3149 5.80883C12.4887 5.61457 10.7183 6.91627 9.7876 6.91627C8.83899 6.91627 7.40616 5.82812 5.86324 5.86028C3.83316 5.92675 1.98645 7.06809 0.998785 8.86673C-1.10451 12.5571 0.464358 17.9807 2.47913 20.9637C3.48717 22.4244 4.66528 24.056 6.2068 23.9981C7.71528 23.9348 8.27867 23.0233 10.0995 23.0233C11.9035 23.0233 12.432 23.9981 14.0048 23.9615C15.6235 23.9348 16.6433 22.4943 17.616 21.0197C18.3403 19.9789 18.8976 18.8285 19.2673 17.6113C17.3449 16.7873 16.0948 14.8783 16.0925 12.7629Z" fill="black"/>
<path d="M13.1187 3.84709C14.0012 2.7734 14.436 1.39333 14.3307 0C12.9824 0.143519 11.7368 0.796592 10.8424 1.82909C9.95908 2.8478 9.51162 4.18053 9.59855 5.53376C10.965 5.54801 12.2624 4.92636 13.1187 3.84709Z" fill="black"/>
</svg>
