<svg width="348" height="336" viewBox="0 0 348 336" fill="none" xmlns="http://www.w3.org/2000/svg">
<path d="M248.25 99H240V66C240 29.601 210.399 0 174 0C137.601 0 108 29.601 108 66V99H99.75C86.11 99 75 110.099 75 123.75V239.25C75 252.901 86.11 264 99.75 264H248.25C261.89 264 273 252.901 273 239.25V123.75C273 110.099 261.89 99 248.25 99ZM130 66C130 41.734 149.734 22 174 22C198.266 22 218 41.734 218 66V99H130V66ZM185 183.942V209C185 215.072 180.083 220 174 220C167.917 220 163 215.072 163 209V183.942C156.455 180.125 152 173.107 152 165C152 152.867 161.867 143 174 143C186.133 143 196 152.867 196 165C196 173.107 191.545 180.125 185 183.942Z" fill="#B0B8FC"/>
<g filter="url(#filter0_d_9642_27129)">
<rect x="24" y="245" width="300" height="63" rx="31.5" fill="white"/>
</g>
<path d="M68.5184 284.44C63.8427 289.117 56.2613 289.117 51.5856 284.44C46.909 279.765 46.909 272.183 51.5856 267.507C56.2613 262.831 63.8427 262.831 68.5184 267.507C73.195 272.184 73.195 279.765 68.5184 284.44ZM53.7028 282.324C56.848 285.469 61.7422 285.785 65.2492 283.287L52.7397 270.778C50.2424 274.284 50.5575 279.178 53.7029 282.324L53.7028 282.324ZM66.4025 269.624C63.2573 266.479 58.3631 266.164 54.8569 268.661L67.3664 281.17C69.8629 277.664 69.5478 272.769 66.4026 269.624L66.4025 269.624Z" fill="#FF3535"/>
<path d="M95.488 277.272C96.304 276.84 96.896 276.088 96.896 274.84C96.896 272.808 95.344 271.8 93.408 271.8H89.136V283H93.632C95.52 283 97.184 281.976 97.184 279.896C97.184 278.52 96.432 277.688 95.488 277.272ZM90.624 273.096H93.408C94.448 273.096 95.44 273.56 95.44 274.936C95.44 276.296 94.48 276.76 93.408 276.76H90.624V273.096ZM93.6 281.704H90.624V277.944H93.6C94.576 277.944 95.696 278.456 95.696 279.816C95.696 281.192 94.576 281.704 93.6 281.704ZM100.918 283.032C101.238 283.032 101.59 282.984 101.974 282.872L101.814 281.624C101.622 281.672 101.446 281.704 101.27 281.704C100.63 281.704 100.15 281.32 100.15 280.488V271H98.71V280.728C98.71 282.184 99.574 283.032 100.918 283.032ZM106.768 283.192C109.088 283.192 110.96 281.336 110.96 279.032C110.96 276.712 109.088 274.856 106.768 274.856C104.448 274.856 102.592 276.712 102.592 279.032C102.592 281.336 104.448 283.192 106.768 283.192ZM106.768 281.848C105.248 281.848 104.08 280.616 104.08 279.048C104.08 277.464 105.248 276.232 106.768 276.232C108.288 276.232 109.472 277.464 109.472 279.048C109.472 280.616 108.288 281.848 106.768 281.848ZM116.14 283.192C117.532 283.192 118.78 282.52 119.532 281.464L118.38 280.616C117.916 281.368 117.084 281.848 116.14 281.848C114.588 281.832 113.404 280.616 113.404 279.048C113.404 277.464 114.588 276.232 116.14 276.232C117.068 276.248 117.884 276.728 118.364 277.464L119.532 276.6C118.78 275.544 117.532 274.856 116.14 274.856C113.868 274.856 111.98 276.712 111.98 279.032C111.98 281.336 113.868 283.192 116.14 283.192ZM120.866 283H122.306V279.624H123.874L126.77 283H128.578L125.058 278.936L128.578 275.08H126.738L123.89 278.248H122.306V271H120.866V283ZM133.777 283H135.281V278.136H141.409V283H142.913V271.8H141.409V276.696H135.281V271.8H133.777V283ZM148.687 274.872C146.319 274.872 144.575 276.696 144.575 279.048C144.575 281.336 146.414 283.176 148.703 283.176C150.079 283.176 151.327 282.616 152.062 281.592L151.151 280.856C150.623 281.544 149.791 281.96 148.735 281.96C147.295 281.96 146.095 280.968 145.935 279.4H152.703C152.719 279.24 152.719 279.112 152.719 278.968C152.655 276.504 150.991 274.872 148.687 274.872ZM148.687 276.072C150.111 276.072 151.055 276.968 151.359 278.232H146.015C146.319 276.936 147.359 276.072 148.687 276.072ZM154.085 283H155.525V279.112C155.525 277.256 156.501 276.232 157.877 276.232C159.077 276.232 160.101 277.048 160.101 279.032V283H161.541V278.92C161.541 276.264 160.085 274.968 158.053 274.968C157.029 274.968 156.117 275.432 155.525 276.136V275.08H154.085V283ZM163.319 283H164.759V278.824C164.759 277.208 165.751 276.344 166.839 276.344C167.175 276.344 167.463 276.36 167.815 276.488V274.968C166.423 274.936 165.399 275.288 164.759 276.168V275.08H163.319V283ZM169.097 287C170.713 286.984 171.945 286.456 172.729 284.568L176.697 275.08H175.177L172.633 281.592L169.993 275.08H168.457L171.897 283.016L171.449 284.104C171.033 285.208 170.281 285.624 169.241 285.656L169.097 287ZM177.371 275.08H178.491L179.163 271.8H177.963L177.371 275.08ZM183.657 283.272C185.673 283.272 187.033 282.216 187.033 280.664C187.033 279.752 186.537 279.208 185.833 278.904C184.409 278.264 181.785 278.856 181.785 277.304C181.785 276.632 182.473 275.976 183.545 275.976C184.633 275.976 185.225 276.6 185.433 277.352L186.665 277.016C186.329 275.816 185.257 274.888 183.529 274.888C181.753 274.888 180.441 276.008 180.441 277.336C180.441 278.408 181.081 278.952 181.769 279.224C183.321 279.832 185.625 279.272 185.625 280.664C185.625 281.544 184.889 282.104 183.673 282.104C182.729 282.104 181.801 281.736 181.369 280.664L180.121 281.064C180.665 282.568 182.137 283.272 183.657 283.272ZM192.464 283H199.888V281.608H193.968V271.8H192.464V283ZM201.772 273.544C202.252 273.544 202.636 273.16 202.636 272.68C202.636 272.248 202.252 271.864 201.772 271.864C201.308 271.864 200.924 272.248 200.924 272.68C200.924 273.16 201.308 273.544 201.772 273.544ZM201.084 283H202.492V275.08H201.084V283ZM208.126 283.032C208.558 283.032 209.022 282.968 209.486 282.824L209.326 281.576C209.038 281.656 208.734 281.72 208.43 281.72C207.614 281.72 207.006 281.336 207.006 280.312V276.344H209.262V275.08H207.006V272.776H205.582V275.08H203.726V276.344H205.582V280.6C205.582 282.152 206.638 283.032 208.126 283.032ZM214.36 283.032C214.792 283.032 215.256 282.968 215.72 282.824L215.56 281.576C215.272 281.656 214.968 281.72 214.664 281.72C213.848 281.72 213.24 281.336 213.24 280.312V276.344H215.496V275.08H213.24V272.776H211.816V275.08H209.96V276.344H211.816V280.6C211.816 282.152 212.872 283.032 214.36 283.032ZM219.527 283.032C219.847 283.032 220.199 282.984 220.583 282.872L220.423 281.624C220.231 281.672 220.055 281.704 219.879 281.704C219.239 281.704 218.759 281.32 218.759 280.488V271H217.319V280.728C217.319 282.184 218.183 283.032 219.527 283.032ZM225.249 274.872C222.881 274.872 221.137 276.696 221.137 279.048C221.137 281.336 222.977 283.176 225.265 283.176C226.641 283.176 227.889 282.616 228.625 281.592L227.713 280.856C227.185 281.544 226.353 281.96 225.297 281.96C223.857 281.96 222.657 280.968 222.497 279.4H229.265C229.281 279.24 229.281 279.112 229.281 278.968C229.217 276.504 227.553 274.872 225.249 274.872ZM225.249 276.072C226.673 276.072 227.617 276.968 227.921 278.232H222.577C222.881 276.936 223.921 276.072 225.249 276.072ZM239.803 283.16C242.011 283.16 243.883 281.912 244.827 280.088L243.451 279.4C242.763 280.728 241.419 281.64 239.803 281.64C237.467 281.64 235.675 279.736 235.675 277.4C235.675 275.064 237.467 273.16 239.803 273.16C241.403 273.16 242.731 274.056 243.435 275.352L244.795 274.664C243.851 272.856 241.995 271.64 239.803 271.64C236.603 271.64 234.155 274.216 234.155 277.4C234.155 280.584 236.603 283.16 239.803 283.16ZM249.476 283.112C250.964 283.112 251.86 282.568 252.532 281.832V283H253.972V275.08H252.532V276.264C251.86 275.496 250.964 274.968 249.476 274.968C247.316 274.968 245.668 276.744 245.668 279.048C245.668 281.32 247.316 283.112 249.476 283.112ZM249.812 281.848C248.276 281.848 247.092 280.616 247.092 279.048C247.092 277.464 248.276 276.232 249.812 276.232C251.348 276.232 252.532 277.464 252.532 279.048C252.532 280.616 251.348 281.848 249.812 281.848ZM255.913 283H257.353V278.824C257.353 277.208 258.345 276.344 259.433 276.344C259.769 276.344 260.057 276.36 260.409 276.488V274.968C259.017 274.936 257.993 275.288 257.353 276.168V275.08H255.913V283ZM264.758 283.112C266.246 283.112 267.142 282.568 267.814 281.832V283H269.253V271H267.814V276.264C267.142 275.496 266.246 274.968 264.758 274.968C262.598 274.968 260.95 276.744 260.95 279.048C260.95 281.32 262.598 283.112 264.758 283.112ZM265.094 281.848C263.558 281.848 262.406 280.616 262.406 279.048C262.406 277.464 263.558 276.232 265.094 276.232C266.63 276.232 267.814 277.464 267.814 279.048C267.814 280.616 266.63 281.848 265.094 281.848Z" fill="#424242"/>
<defs>
<filter id="filter0_d_9642_27129" x="0" y="225" width="348" height="111" filterUnits="userSpaceOnUse" color-interpolation-filters="sRGB">
<feFlood flood-opacity="0" result="BackgroundImageFix"/>
<feColorMatrix in="SourceAlpha" type="matrix" values="0 0 0 0 0 0 0 0 0 0 0 0 0 0 0 0 0 0 127 0" result="hardAlpha"/>
<feOffset dy="4"/>
<feGaussianBlur stdDeviation="12"/>
<feComposite in2="hardAlpha" operator="out"/>
<feColorMatrix type="matrix" values="0 0 0 0 0.620833 0 0 0 0 0.620833 0 0 0 0 0.620833 0 0 0 0.25 0"/>
<feBlend mode="normal" in2="BackgroundImageFix" result="effect1_dropShadow_9642_27129"/>
<feBlend mode="normal" in="SourceGraphic" in2="effect1_dropShadow_9642_27129" result="shape"/>
</filter>
</defs>
</svg>
