<svg width="243" height="241" viewBox="0 0 243 241" fill="none" xmlns="http://www.w3.org/2000/svg">
<path d="M99.372 170.726L99.2989 170.618C99.2746 170.583 99.2529 170.545 99.2258 170.51L99.1528 170.399L99.0824 170.291C99.0553 170.255 99.0336 170.217 99.0066 170.182L98.9362 170.074L98.8631 169.966L98.79 169.857L98.7169 169.749L98.6438 169.638L98.5707 169.53L98.4977 169.422L98.4246 169.311L98.3515 169.205C98.3271 169.17 98.3055 169.132 98.2784 169.097L98.2053 168.986L98.1349 168.878C98.1078 168.842 98.0862 168.807 98.0618 168.769C98.0375 168.731 98.0131 168.696 97.9887 168.661C97.9644 168.626 97.94 168.588 97.9156 168.553L97.8426 168.444L97.7695 168.333L97.6964 168.225C91.1724 158.75 89.1719 146.152 93.1783 132.324C101.714 102.861 134.293 78.9766 165.941 78.9766C182.792 78.9766 195.989 85.7442 203.344 96.529L203.417 96.6373L203.49 96.7483L203.563 96.8539C203.588 96.8918 203.609 96.927 203.637 96.9622L203.71 97.0732L203.78 97.1814C203.807 97.2166 203.829 97.2545 203.853 97.2897C203.877 97.3249 203.902 97.3628 203.929 97.398L203.999 97.5063L204.072 97.6173L204.145 97.7228L204.219 97.8338L204.292 97.9421L204.365 98.0504L204.438 98.1587L204.511 98.267C204.535 98.3049 204.557 98.34 204.584 98.3752L204.657 98.4862L204.727 98.5945C204.755 98.6297 204.776 98.6676 204.801 98.7028C204.825 98.738 204.849 98.7759 204.876 98.8111L204.947 98.9194L205.02 99.0276L205.142 99.2117L205.166 99.2469L205.239 99.3552L205.312 99.4662L205.385 99.5718C205.41 99.607 205.431 99.6448 205.458 99.68L205.531 99.791L205.602 99.8993C205.629 99.9345 205.651 99.9697 205.675 100.008C205.699 100.045 205.724 100.081 205.751 100.116L205.821 100.224L205.894 100.332L205.967 100.441L206.04 100.552L206.113 100.66L206.187 100.768L206.26 100.877L206.333 100.985C206.373 101.044 206.411 101.109 206.452 101.169C206.462 101.18 206.471 101.192 206.479 101.204L206.552 101.312L206.622 101.421C206.649 101.456 206.671 101.494 206.698 101.529L206.769 101.637L206.842 101.746L206.915 101.857L206.988 101.965L207.061 102.073L207.134 102.184L207.207 102.29L207.28 102.398L207.353 102.509L207.424 102.614C207.451 102.652 207.472 102.688 207.497 102.725C207.521 102.763 207.545 102.799 207.573 102.834L207.643 102.942L207.716 103.05L207.792 103.161L207.862 103.267L207.935 103.378C207.976 103.437 208.014 103.5 208.057 103.559L208.081 103.594L208.155 103.703L208.228 103.811L208.301 103.922L208.374 104.03L208.444 104.139C208.471 104.174 208.493 104.212 208.52 104.247L208.59 104.355L208.664 104.463L208.737 104.574L208.81 104.68L208.883 104.791L208.956 104.899L209.029 105.007L209.102 105.116L209.175 105.227L209.246 105.332C209.273 105.37 209.294 105.405 209.319 105.443C209.343 105.481 209.367 105.516 209.394 105.552L209.514 105.733L209.538 105.768C209.565 105.803 209.587 105.841 209.614 105.879L209.684 105.985L209.757 106.093L209.83 106.204L209.903 106.312L209.976 106.421L210.05 106.529L210.123 106.64L210.196 106.748L210.266 106.856C210.293 106.892 210.315 106.93 210.342 106.965L210.412 107.073L210.485 107.181L210.558 107.292C217.082 116.767 219.086 129.365 215.077 143.193C206.541 172.657 173.962 196.538 142.314 196.538C125.463 196.538 112.266 189.77 104.911 178.988L104.838 178.877L104.764 178.772L104.694 178.661C104.667 178.626 104.645 178.588 104.618 178.552L104.548 178.444C104.521 178.409 104.499 178.371 104.475 178.336L104.402 178.228L104.329 178.117L104.256 178.011L104.182 177.9L104.109 177.792L104.036 177.684L103.963 177.575L103.89 177.464L103.841 177.388C103.809 177.342 103.776 177.296 103.747 177.248C103.717 177.199 103.698 177.175 103.671 177.139L103.6 177.031L103.527 176.923L103.462 176.806L103.389 176.701L103.316 176.59L103.243 176.482L103.17 176.373L103.097 176.265L103.024 176.154L102.951 176.048L102.88 175.94C102.853 175.902 102.832 175.864 102.805 175.829C102.777 175.794 102.759 175.756 102.731 175.721L102.661 175.613L102.588 175.504L102.515 175.393L102.442 175.288L102.393 175.209L102.296 175.069L102.223 174.96L102.149 174.852L102.076 174.741L102.003 174.635L101.933 174.527C101.906 174.489 101.884 174.451 101.857 174.416L101.787 174.308L101.714 174.2L101.641 174.091L101.567 173.983L101.494 173.872L101.421 173.764L101.348 173.655L101.275 173.547L101.202 173.439L101.129 173.331C101.105 173.295 101.083 173.258 101.056 173.222L100.983 173.111C100.958 173.076 100.937 173.038 100.91 173.003L100.839 172.895C100.82 172.87 100.807 172.843 100.788 172.819L100.693 172.675L100.62 172.57L100.547 172.462L100.474 172.351L100.401 172.242L100.328 172.134L100.255 172.023L100.181 171.918L100.111 171.809L100.035 171.698L99.9649 171.59L99.8918 171.482L99.8187 171.373L99.7456 171.265L99.6725 171.154L99.5994 171.046L99.5263 170.938L99.4776 170.862L99.372 170.726Z" fill="#5BAB0A" stroke="black" stroke-linecap="round" stroke-linejoin="round"/>
<g opacity="0.4">
<path opacity="0.4" d="M111.903 180.434L121.849 194.792" stroke="#87C24C" stroke-width="3.46" stroke-linecap="round" stroke-linejoin="round"/>
<path opacity="0.4" d="M129.201 184.243L139.146 198.601" stroke="#87C24C" stroke-width="3.46" stroke-linecap="round" stroke-linejoin="round"/>
<path opacity="0.4" d="M147.804 182.131L157.749 196.487" stroke="#87C24C" stroke-width="3.46" stroke-linecap="round" stroke-linejoin="round"/>
<path opacity="0.4" d="M165.329 177.066L175.272 191.422" stroke="#87C24C" stroke-width="3.46" stroke-linecap="round" stroke-linejoin="round"/>
<path opacity="0.4" d="M179.628 167.773L189.573 182.131" stroke="#87C24C" stroke-width="3.46" stroke-linecap="round" stroke-linejoin="round"/>
<path opacity="0.4" d="M194.154 155.394L204.099 169.752" stroke="#87C24C" stroke-width="3.46" stroke-linecap="round" stroke-linejoin="round"/>
<path opacity="0.4" d="M202.004 143.199L211.947 157.557" stroke="#87C24C" stroke-width="3.46" stroke-linecap="round" stroke-linejoin="round"/>
<path opacity="0.4" d="M206.977 128.429L216.92 142.787" stroke="#87C24C" stroke-width="3.46" stroke-linecap="round" stroke-linejoin="round"/>
<path opacity="0.4" d="M209.782 115.346L219.725 129.704" stroke="#87C24C" stroke-width="3.46" stroke-linecap="round" stroke-linejoin="round"/>
</g>
<path d="M177.55 170.987C206.816 151.242 218.534 117.441 203.724 95.4904C188.915 73.5401 153.185 71.7527 123.919 91.498C94.6538 111.243 82.9353 145.044 97.7451 166.994C112.555 188.945 148.285 190.732 177.55 170.987Z" fill="#87C24C" stroke="black" stroke-width="1.00125" stroke-linecap="round" stroke-linejoin="round"/>
<path d="M120.038 174.029L120.054 174.045C120.733 174.335 121.448 174.606 122.16 174.879C126.664 176.503 131.762 177.359 137.336 177.359C164.065 177.359 191.693 157.105 198.915 132.211C203.672 115.779 198.374 101.369 186.512 93.4674L186.493 93.4511C186.255 93.2968 186.019 93.129 185.762 92.9909C179.782 89.22 172.227 87.0625 163.486 87.0625C136.756 87.0625 109.128 107.317 101.906 132.211C96.424 151.09 104.274 167.299 120.038 174.029Z" fill="black" stroke="black" stroke-linecap="round" stroke-linejoin="round"/>
<path d="M122.16 174.879C126.665 176.503 131.762 177.359 137.336 177.359C164.065 177.359 191.693 157.105 198.916 132.211C203.672 115.779 198.374 101.369 186.512 93.4675L186.493 93.4512C186.255 93.2969 186.019 93.1291 185.762 92.991C181.244 91.3425 176.111 90.46 170.521 90.46C143.792 90.46 116.161 110.714 108.942 135.608C104.063 152.413 109.74 167.096 122.16 174.879Z" fill="#87C24C" stroke="black" stroke-linecap="round" stroke-linejoin="round"/>
<path d="M59.8084 212.922L33.3173 235.899C31.5414 237.439 32.8543 240 35.4233 240H216.422C218.977 240 220.298 237.466 218.552 235.918L192.665 212.962C191.439 211.92 189.877 211.357 188.268 211.379H64.1586C62.5711 211.359 61.0286 211.906 59.8084 212.922Z" fill="#87C24C" stroke="black" stroke-linecap="round" stroke-linejoin="round"/>
<path d="M216.425 239.997H35.4263C33.3148 239.997 32.0479 238.268 32.657 236.8H219.189C219.798 238.273 218.531 239.997 216.425 239.997Z" fill="#5BAB0A" stroke="black" stroke-linecap="round" stroke-linejoin="round"/>
<path d="M211.39 234.651C211.287 234.755 211.163 234.837 211.027 234.892C210.891 234.946 210.746 234.972 210.599 234.968H41.214C41.0675 234.972 40.9218 234.946 40.7858 234.892C40.6498 234.837 40.5265 234.755 40.4235 234.651C40.3446 234.58 40.2822 234.493 40.241 234.395C40.1998 234.298 40.1807 234.192 40.1851 234.086C40.1895 233.981 40.2173 233.877 40.2664 233.783C40.3156 233.689 40.385 233.608 40.4696 233.544L63.4469 213.436C63.5471 213.344 63.6644 213.273 63.7921 213.226C63.9199 213.18 64.0556 213.159 64.1914 213.165H188.193C188.473 213.158 188.746 213.254 188.959 213.436L192.454 216.6H190.873C189.452 216.6 188.594 217.751 189.021 218.744C189.105 218.984 189.254 219.195 189.452 219.353L195.207 225.899C197.096 227.485 199.49 228.341 201.956 228.314H205.518L211.341 233.549C211.422 233.614 211.489 233.696 211.536 233.79C211.583 233.883 211.61 233.985 211.615 234.089C211.619 234.193 211.602 234.297 211.563 234.394C211.524 234.491 211.465 234.579 211.39 234.651Z" fill="black" stroke="black" stroke-linecap="round" stroke-linejoin="round"/>
<path d="M211.389 234.651C211.286 234.755 211.163 234.837 211.027 234.891C210.891 234.946 210.745 234.972 210.599 234.968H41.2138C41.0673 234.972 40.9216 234.946 40.7856 234.891C40.6496 234.837 40.5263 234.755 40.4233 234.651C40.4233 234.629 40.4477 234.605 40.4694 234.583L63.4467 214.497C63.5469 214.405 63.6642 214.334 63.792 214.287C63.9197 214.241 64.0554 214.22 64.1912 214.226H188.193C188.473 214.219 188.746 214.315 188.959 214.497L191.306 216.595H190.878C189.457 216.595 188.599 217.745 189.027 218.739C188.905 219.026 188.881 219.345 188.959 219.647C189.037 219.949 189.212 220.217 189.457 220.409L195.212 226.955C197.101 228.54 199.495 229.397 201.961 229.369H205.518L211.341 234.605C211.356 234.622 211.372 234.637 211.389 234.651Z" fill="white" stroke="black" stroke-linecap="round" stroke-linejoin="round"/>
<path d="M134.09 159.414C134.753 159.62 135.444 159.79 136.164 159.956C138.149 160.359 140.17 160.558 142.195 160.551C157.658 160.551 173.581 149.777 179.528 135.876C179.56 135.792 179.596 135.709 179.628 135.622C180.1 134.515 180.503 133.381 180.835 132.225H119.976C116.248 145.107 122.382 156.017 134.09 159.414Z" fill="black" stroke="black" stroke-linecap="round" stroke-linejoin="round"/>
<path d="M134.09 159.414C134.753 159.62 135.443 159.79 136.164 159.955C138.148 160.358 140.169 160.558 142.195 160.551C157.657 160.551 173.58 149.777 179.528 135.876C179.56 135.792 179.595 135.708 179.628 135.622H127.014C124.114 145.6 127.157 154.384 134.09 159.414Z" fill="white" stroke="black" stroke-linecap="round" stroke-linejoin="round"/>
<path d="M126.927 121.412L127.008 121.312C127.038 121.28 127.065 121.245 127.092 121.212C127.119 121.18 127.149 121.144 127.179 121.109L127.26 121.012L127.347 120.909L127.431 120.811L127.515 120.709L127.599 120.611L127.682 120.508C127.71 120.476 127.737 120.441 127.766 120.408C127.796 120.376 127.821 120.34 127.85 120.308L127.934 120.208L128.018 120.108C128.048 120.075 128.075 120.04 128.102 120.007C128.129 119.975 128.156 119.94 128.186 119.907C128.216 119.875 128.243 119.84 128.27 119.807C128.297 119.775 128.327 119.739 128.354 119.707C128.381 119.674 128.411 119.639 128.438 119.607C128.465 119.574 128.495 119.539 128.522 119.504L128.606 119.407L128.689 119.304L128.776 119.203L128.857 119.106C136.353 110.376 139.685 98.0615 137.171 83.8847C131.816 53.6822 101.979 26.4683 70.4961 23.1007C53.7395 21.3086 39.9065 26.6388 31.4389 36.5737C31.4091 36.6061 31.3821 36.6413 31.355 36.6738L31.2684 36.7767L31.1872 36.8741L31.1032 36.9743L31.0166 37.0772L30.9327 37.1773L30.8488 37.2775C30.8217 37.31 30.7946 37.3452 30.7649 37.3776C30.7351 37.4101 30.7107 37.4453 30.6809 37.4778C30.6512 37.5103 30.6268 37.5455 30.597 37.578C30.5672 37.6105 30.5429 37.6456 30.5131 37.6781L30.4292 37.7783C30.3994 37.8108 30.3751 37.846 30.3453 37.8784C30.3155 37.9109 30.2911 37.9461 30.2614 37.9786L30.1774 38.0788L30.0935 38.1789L30.0096 38.2791L29.923 38.382L29.8418 38.4794L29.7578 38.5796L29.6739 38.6824C29.6441 38.7149 29.6171 38.7474 29.59 38.7826C29.5629 38.8178 29.5332 38.8476 29.5061 38.8828C29.479 38.918 29.4141 38.9965 29.3653 39.0506L29.3382 39.0831C29.3085 39.1156 29.2814 39.1508 29.2543 39.1832L29.1677 39.2834L29.0865 39.3836C29.0567 39.4161 29.0296 39.4512 29.0026 39.4837L28.9159 39.5839C28.8889 39.6191 28.8618 39.6516 28.832 39.6841C28.8023 39.7165 28.7779 39.7517 28.7481 39.7842L28.6642 39.8871L28.5803 39.9845L28.4964 40.0874L28.4124 40.1849L28.3285 40.2877C28.2987 40.3202 28.2744 40.3527 28.2446 40.3879L28.1607 40.488L28.0768 40.5882C28.047 40.6207 28.0199 40.6559 27.9929 40.6884C27.9658 40.7208 27.9008 40.8021 27.8521 40.8589L27.825 40.8887C27.7952 40.9212 27.7682 40.9564 27.7411 40.9888C27.714 41.0213 27.6842 41.0565 27.6572 41.089C27.6301 41.1215 27.6003 41.1567 27.5732 41.1892L27.4893 41.2893C27.4596 41.3218 27.4325 41.357 27.4054 41.3895L27.3188 41.4924L27.2376 41.5898L27.1537 41.69C27.1239 41.7252 27.0968 41.7604 27.067 41.7928L26.9858 41.893C26.956 41.9255 26.929 41.958 26.9019 41.9932L26.8153 42.0933C26.7882 42.1258 26.7611 42.161 26.7314 42.1935C26.7016 42.226 26.6772 42.2612 26.6474 42.2936C26.6177 42.3261 26.5933 42.3613 26.5635 42.3938C26.5337 42.4263 26.5094 42.4615 26.4796 42.494C26.4498 42.5264 26.4255 42.5616 26.3957 42.5941L26.3118 42.697L26.2279 42.7944C26.2008 42.8269 26.1737 42.8621 26.1439 42.8946L26.0032 43.0651L25.9761 43.0976L25.8922 43.1951C25.8651 43.2303 25.8353 43.2628 25.8083 43.2952L25.7243 43.3981C25.6946 43.4306 25.6675 43.4658 25.6404 43.4983C25.6134 43.5308 25.5836 43.5632 25.5565 43.5984L25.4699 43.6986L25.3887 43.7988C25.3589 43.8312 25.3318 43.8664 25.3048 43.8989L25.2181 43.9991L25.1369 44.0992C25.1071 44.1317 25.0801 44.1669 25.053 44.1994C25.0259 44.2319 24.9962 44.2671 24.9664 44.3023L24.8852 44.3997L24.7985 44.4999L24.7146 44.6027L24.6307 44.7002C24.6036 44.7354 24.5766 44.7679 24.5468 44.8004L24.4629 44.9032L24.3248 45.0711L24.295 45.1036L24.2111 45.2037C24.1813 45.2362 24.1543 45.2714 24.1272 45.3039C24.1001 45.3364 24.073 45.3715 24.0433 45.404C24.0135 45.4365 23.9891 45.4717 23.9594 45.5042C23.9296 45.5367 23.9025 45.5719 23.8754 45.6043C23.8484 45.6368 23.8186 45.672 23.7915 45.7045C23.7644 45.737 23.7347 45.7722 23.7076 45.8047C23.6805 45.8372 23.6508 45.8724 23.6237 45.9048L23.5398 46.005L23.4558 46.1052L23.3692 46.208L23.288 46.3055L23.2041 46.4056L23.1175 46.5085C15.6244 55.2387 12.2893 67.5504 14.8068 81.7271C20.1614 111.93 49.9984 139.144 81.4813 142.511C98.2379 144.303 112.071 138.973 120.539 129.038C120.568 129.006 120.595 128.97 120.625 128.935L120.706 128.838C120.736 128.805 120.763 128.77 120.79 128.738L120.877 128.635L120.961 128.535L121.042 128.434L121.129 128.334C121.156 128.302 121.183 128.267 121.213 128.234C121.242 128.202 121.267 128.167 121.297 128.134C121.326 128.102 121.351 128.066 121.38 128.034C121.41 128.001 121.435 127.966 121.464 127.934C121.494 127.901 121.519 127.866 121.548 127.834C121.578 127.801 121.602 127.766 121.632 127.733L121.716 127.633L121.773 127.56L121.884 127.433L121.968 127.33L122.052 127.233C122.079 127.197 122.109 127.165 122.136 127.132L122.22 127.03L122.304 126.932L122.387 126.829C122.417 126.797 122.444 126.762 122.471 126.729C122.498 126.697 122.528 126.661 122.555 126.629C122.582 126.596 122.612 126.564 122.639 126.529L122.726 126.429L122.807 126.328C122.837 126.296 122.864 126.261 122.891 126.228L122.978 126.128C123.005 126.093 123.032 126.06 123.062 126.028L123.143 125.928L123.229 125.828L123.313 125.725L123.397 125.627L123.454 125.554L123.565 125.424L123.649 125.327L123.733 125.224C123.763 125.191 123.79 125.156 123.817 125.124C123.844 125.091 123.871 125.056 123.901 125.024L123.985 124.923L124.069 124.823C124.098 124.791 124.125 124.756 124.152 124.723L124.236 124.623C124.266 124.59 124.293 124.555 124.32 124.523C124.347 124.49 124.377 124.455 124.404 124.423C124.431 124.39 124.461 124.355 124.488 124.322L124.572 124.22L124.656 124.122L124.74 124.022L124.827 123.919L124.908 123.822L124.992 123.722C125.021 123.686 125.048 123.651 125.078 123.619C125.108 123.586 125.132 123.551 125.162 123.519L125.243 123.418C125.265 123.397 125.281 123.37 125.303 123.348L125.414 123.218C125.441 123.186 125.468 123.15 125.498 123.118C125.528 123.085 125.552 123.05 125.582 123.018C125.612 122.985 125.636 122.95 125.666 122.918C125.695 122.885 125.72 122.85 125.75 122.817C125.779 122.785 125.804 122.75 125.834 122.717L125.917 122.614L126.001 122.517C126.028 122.482 126.056 122.449 126.085 122.417L126.169 122.314L126.253 122.216L126.337 122.114C126.367 122.081 126.394 122.046 126.421 122.013C126.448 121.981 126.478 121.946 126.505 121.913C126.532 121.881 126.562 121.846 126.589 121.813L126.675 121.713L126.757 121.613C126.778 121.591 126.795 121.564 126.816 121.542L126.927 121.412Z" fill="#FA9820" stroke="black" stroke-linecap="round" stroke-linejoin="round"/>
<g opacity="0.4">
<path opacity="0.4" d="M118.213 125.481L108.27 139.839" stroke="#FFBE6E" stroke-width="3.46" stroke-linecap="round" stroke-linejoin="round"/>
<path opacity="0.4" d="M100.915 129.293L90.9722 143.651" stroke="#FFBE6E" stroke-width="3.46" stroke-linecap="round" stroke-linejoin="round"/>
<path opacity="0.4" d="M82.3124 127.179L72.3694 141.537" stroke="#FFBE6E" stroke-width="3.46" stroke-linecap="round" stroke-linejoin="round"/>
<path opacity="0.4" d="M64.787 122.114L54.844 136.472" stroke="#FFBE6E" stroke-width="3.46" stroke-linecap="round" stroke-linejoin="round"/>
<path opacity="0.4" d="M50.4885 112.82L40.5428 127.178" stroke="#FFBE6E" stroke-width="3.46" stroke-linecap="round" stroke-linejoin="round"/>
<path opacity="0.4" d="M35.9623 100.441L26.0166 114.799" stroke="#FFBE6E" stroke-width="3.46" stroke-linecap="round" stroke-linejoin="round"/>
<path opacity="0.4" d="M28.1122 88.2461L18.1692 102.604" stroke="#FFBE6E" stroke-width="3.46" stroke-linecap="round" stroke-linejoin="round"/>
<path opacity="0.4" d="M23.1418 73.4761L13.1962 87.8342" stroke="#FFBE6E" stroke-width="3.46" stroke-linecap="round" stroke-linejoin="round"/>
<path opacity="0.4" d="M20.3372 60.3931L10.3915 74.7512" stroke="#FFBE6E" stroke-width="3.46" stroke-linecap="round" stroke-linejoin="round"/>
</g>
<path d="M129.223 118.698C146.205 98.4245 138.059 63.6354 111.028 40.9946C83.9984 18.3538 48.3199 16.435 31.3384 36.7087C14.3568 56.9824 22.5028 91.7715 49.5329 114.412C76.563 137.053 112.241 138.972 129.223 118.698Z" fill="#FFBE6E" stroke="black" stroke-linecap="round" stroke-linejoin="round"/>
<path d="M106.028 122.498H106.01C105.303 122.714 104.564 122.906 103.825 123.101C99.1769 124.227 94.0146 124.547 88.4733 123.954C61.8955 121.112 36.5766 98.0313 32.045 72.5201C29.0672 55.6769 35.8673 41.9143 48.5011 35.3172L48.52 35.3037C48.7718 35.1765 49.0263 35.033 49.2943 34.9247C55.645 31.8116 63.3925 30.4689 72.0767 31.4055C98.6545 34.2506 123.971 57.3282 128.505 82.8394C131.935 102.197 122.411 117.484 106.028 122.498Z" fill="black" stroke="black" stroke-linecap="round" stroke-linejoin="round"/>
<path d="M103.825 123.115C99.177 124.242 94.0146 124.561 88.4733 123.968C61.8955 121.126 36.5766 98.0455 32.045 72.5344C29.0672 55.6911 35.8673 41.9285 48.5011 35.3315L48.52 35.3179C48.7718 35.1907 49.0263 35.0472 49.2943 34.9389C53.9639 33.7803 59.1614 33.4474 64.7244 34.0429C91.3022 36.888 116.621 59.9656 121.153 85.4767C124.209 102.704 116.997 116.711 103.825 123.115Z" fill="#FFBE6E" stroke="black" stroke-linecap="round" stroke-linejoin="round"/>
<path d="M197.559 56.8385C197.584 56.806 197.614 56.7789 197.635 56.7465C197.657 56.714 197.689 56.6869 197.711 56.6571C197.733 56.6274 197.765 56.5976 197.787 56.5651C197.809 56.5326 197.841 56.5055 197.863 56.4731C197.884 56.4406 197.917 56.4135 197.938 56.3837C197.96 56.3539 197.993 56.3242 198.014 56.2917C198.036 56.2592 198.068 56.2321 198.09 56.1996C198.112 56.1672 198.144 56.1401 198.166 56.1076C198.188 56.0751 198.22 56.0508 198.242 56.0183C198.263 55.9858 198.296 55.9587 198.317 55.9262C198.339 55.8937 198.372 55.8667 198.393 55.8342C198.415 55.8017 198.447 55.7746 198.469 55.7422C198.491 55.7097 198.523 55.6853 198.545 55.6528C198.566 55.6203 198.599 55.5933 198.621 55.5608C198.642 55.5283 198.675 55.5012 198.696 55.4687C198.718 55.4363 198.751 55.4119 198.772 55.3794C198.794 55.3469 198.826 55.3199 198.851 55.2874C198.875 55.2549 198.902 55.2278 198.924 55.1953C198.945 55.1628 198.978 55.1358 199 55.1033C199.021 55.0708 199.054 55.0464 199.075 55.014C199.097 54.9815 199.13 54.9544 199.154 54.9219C199.178 54.8894 199.205 54.8624 199.227 54.8299C199.249 54.7974 199.281 54.773 199.303 54.7405C199.324 54.7081 199.357 54.681 199.379 54.6485C199.4 54.616 199.433 54.589 199.454 54.5565C199.476 54.524 199.509 54.4969 199.533 54.4644C199.557 54.4319 199.584 54.4076 199.606 54.3751C199.628 54.3426 199.66 54.3155 199.682 54.2831C199.703 54.2506 199.736 54.2235 199.76 54.191C199.785 54.1585 199.812 54.1342 199.833 54.1017C199.855 54.0692 199.888 54.0421 199.912 54.0096C199.936 53.9772 199.963 53.9501 199.988 53.9176C200.012 53.8851 200.039 53.8581 200.063 53.8256C200.088 53.7931 200.115 53.7687 200.137 53.7362C200.158 53.7038 200.191 53.6767 200.215 53.6442C200.239 53.6117 200.267 53.5846 200.291 53.5522C200.315 53.5197 200.342 53.4926 200.364 53.4628C200.386 53.433 200.418 53.4033 200.442 53.3708C200.467 53.3383 200.494 53.3112 200.518 53.2787C200.543 53.2463 200.57 53.2192 200.594 53.1867C200.618 53.1542 200.646 53.1299 200.67 53.0974C200.694 53.0649 200.721 53.0378 200.746 53.0053C200.77 52.9729 200.797 52.9458 200.821 52.9133C200.846 52.8808 200.873 52.8564 200.897 52.824C200.922 52.7915 200.949 52.7644 200.973 52.7319C200.997 52.6994 201.024 52.6724 201.049 52.6399C201.073 52.6074 201.1 52.5803 201.125 52.5505C201.149 52.5208 201.176 52.491 201.2 52.4585C204.814 47.5858 202.949 38.7176 195.635 29.6571C185.935 17.6432 170.34 9.86859 160.801 12.2914C158.41 12.9005 156.629 14.0916 155.451 15.7239C155.427 15.7564 155.397 15.7835 155.373 15.816C155.349 15.8484 155.321 15.8755 155.297 15.908C155.273 15.9405 155.246 15.9676 155.221 16C155.197 16.0325 155.17 16.0596 155.146 16.0921C155.121 16.1246 155.094 16.1489 155.07 16.1814C155.045 16.2139 155.018 16.241 154.994 16.2735C154.97 16.3059 154.942 16.333 154.918 16.3628C154.894 16.3926 154.867 16.4223 154.842 16.4548C154.818 16.4873 154.791 16.5144 154.767 16.5469C154.742 16.5794 154.715 16.6064 154.691 16.6389C154.666 16.6714 154.639 16.6985 154.615 16.7282C154.591 16.758 154.564 16.7878 154.539 16.8203C154.515 16.8528 154.488 16.8798 154.463 16.9123C154.439 16.9448 154.412 16.9719 154.388 17.0016C154.363 17.0314 154.336 17.0612 154.312 17.0937C154.287 17.1262 154.26 17.1532 154.236 17.1857C154.212 17.2182 154.185 17.2453 154.16 17.2778C154.136 17.3103 154.109 17.3373 154.084 17.3698C154.06 17.4023 154.033 17.4267 154.009 17.4591C153.984 17.4916 153.957 17.5187 153.933 17.5512C153.908 17.5837 153.881 17.6107 153.857 17.6432L153.781 17.7325C153.757 17.765 153.73 17.7921 153.705 17.8246C153.681 17.8571 153.654 17.8841 153.63 17.9166C153.605 17.9491 153.578 17.9762 153.554 18.0087C153.529 18.0412 153.502 18.0655 153.478 18.098C153.454 18.1305 153.427 18.1576 153.402 18.19C153.378 18.2225 153.351 18.2496 153.326 18.2821L153.251 18.3714C153.226 18.4039 153.199 18.431 153.175 18.4635C153.15 18.4959 153.123 18.523 153.099 18.5555C153.075 18.588 153.048 18.615 153.023 18.6475C152.999 18.68 152.969 18.7071 152.947 18.7369C152.926 18.7666 152.896 18.7964 152.872 18.8289C152.847 18.8614 152.82 18.8885 152.796 18.9209L152.72 19.0103C152.696 19.0428 152.666 19.0698 152.644 19.1023C152.623 19.1348 152.593 19.1619 152.568 19.1944C152.544 19.2268 152.517 19.2539 152.493 19.2864C152.468 19.3189 152.438 19.3432 152.417 19.3757C152.395 19.4082 152.365 19.4353 152.341 19.4678C152.317 19.5003 152.287 19.5273 152.265 19.5598C152.244 19.5923 152.211 19.6194 152.189 19.6491C152.168 19.6789 152.138 19.7087 152.114 19.7412C152.089 19.7737 152.059 19.8007 152.038 19.8332C152.016 19.8657 151.984 19.8928 151.962 19.9253C151.94 19.9577 151.908 19.9848 151.886 20.0173C151.865 20.0498 151.832 20.0741 151.81 20.1066C151.789 20.1391 151.756 20.1662 151.735 20.1987C148.121 25.0713 149.986 33.9369 157.3 43.0001C167 55.014 182.595 62.7886 192.132 60.3631C194.525 59.7567 196.306 58.5629 197.484 56.9305C197.508 56.8981 197.538 56.8845 197.559 56.8385Z" fill="#5BAB0A" stroke="black" stroke-linecap="round" stroke-linejoin="round"/>
<path d="M197.392 57.0871C202.938 50.3571 197.293 36.5448 184.783 26.2365C172.274 15.9282 157.637 13.0275 152.091 19.7575C146.545 26.4876 152.19 40.2999 164.7 50.6082C177.209 60.9164 191.846 63.8172 197.392 57.0871Z" fill="#87C24C" stroke="black" stroke-linecap="round" stroke-linejoin="round"/>
<path d="M189.371 57.1199C181.295 59.1501 168.074 52.5801 159.864 42.4206C155.327 36.8008 153.267 31.2324 153.743 27.0635C154.06 23.6852 156.039 21.2028 159.626 20.2797C167.701 18.2494 180.922 24.8465 189.103 34.9789C192.849 39.6242 194.909 44.2154 195.253 48.0161C195.702 52.5531 193.751 56.01 189.371 57.1199Z" fill="black" stroke="black" stroke-linecap="round" stroke-linejoin="round"/>
<path d="M195.255 48.0162C194.939 51.3919 192.957 53.8742 189.37 54.7703C181.295 56.8303 168.074 50.2306 159.863 40.071C156.117 35.4528 154.084 30.8671 153.743 27.0772C154.06 23.6988 156.038 21.2165 159.625 20.2934C167.7 18.2631 180.922 24.8602 189.102 34.9926C192.851 39.6244 194.912 44.2155 195.255 48.0162Z" fill="#87C24C" stroke="black" stroke-linecap="round" stroke-linejoin="round"/>
<path d="M183.829 50.2579C178.762 51.5248 170.475 47.4074 165.329 41.0215L167.018 40.5992L183.669 36.3789C185.887 39.086 187.153 41.793 187.459 44.0832C187.922 47.1719 186.704 49.5189 183.829 50.2579Z" fill="black" stroke="black" stroke-linecap="round" stroke-linejoin="round"/>
<path d="M187.47 44.0829C187.153 45.9778 185.938 47.3828 183.829 47.9107C179.289 49.072 172.165 45.8506 167.018 40.6016L183.669 36.3813C185.887 39.0965 187.153 41.7873 187.47 44.0829Z" fill="white" stroke="black" stroke-linecap="round" stroke-linejoin="round"/>
<path d="M132.365 227.269H86.11C85.8213 227.269 85.5393 227.183 85.3001 227.021C85.061 226.859 84.8758 226.63 84.7683 226.362C84.6609 226.094 84.6361 225.8 84.6972 225.518C84.7583 225.235 84.9024 224.978 85.1111 224.779L91.3671 218.782C91.6372 218.525 91.9958 218.382 92.3687 218.382H132.365C132.555 218.382 132.743 218.419 132.918 218.492C133.094 218.565 133.253 218.671 133.387 218.805C133.522 218.939 133.628 219.099 133.701 219.274C133.773 219.45 133.811 219.638 133.811 219.827V225.823C133.811 226.207 133.659 226.575 133.387 226.846C133.116 227.117 132.749 227.269 132.365 227.269Z" fill="#FA9820" stroke="black" stroke-linecap="round" stroke-linejoin="round"/>
<path d="M78.8284 221.963H60.0631C59.6902 221.963 59.3316 222.106 59.0615 222.364L52.8055 228.362C52.5978 228.562 52.4545 228.819 52.394 229.101C52.3334 229.382 52.3584 229.676 52.4658 229.943C52.5731 230.211 52.7579 230.44 52.9965 230.601C53.235 230.763 53.5163 230.85 53.8044 230.85H72.567C72.9399 230.85 73.2984 230.707 73.5686 230.449L79.8245 224.451C80.0335 224.252 80.178 223.995 80.2394 223.713C80.3008 223.431 80.2763 223.137 80.169 222.869C80.0618 222.602 79.8767 222.372 79.6378 222.21C79.3988 222.049 79.1168 221.963 78.8284 221.963Z" fill="#FFBE6E" stroke="black" stroke-linecap="round" stroke-linejoin="round"/>
<path d="M186.46 230.136H140.205C140.015 230.136 139.827 230.098 139.652 230.026C139.476 229.953 139.317 229.846 139.183 229.712C139.048 229.578 138.942 229.419 138.869 229.243C138.797 229.068 138.759 228.88 138.759 228.69V222.691C138.759 222.501 138.797 222.313 138.869 222.138C138.942 221.963 139.048 221.803 139.183 221.669C139.317 221.535 139.476 221.428 139.652 221.356C139.827 221.283 140.015 221.246 140.205 221.246H180.204C180.576 221.246 180.934 221.389 181.203 221.646L187.462 227.642C187.671 227.842 187.816 228.1 187.878 228.383C187.94 228.665 187.915 228.96 187.807 229.229C187.699 229.497 187.513 229.728 187.273 229.889C187.033 230.051 186.749 230.137 186.46 230.136Z" fill="#FFBE6E" stroke="black" stroke-linecap="round" stroke-linejoin="round"/>
<path d="M131.074 11.8452C128.628 11.8473 126.284 12.8206 124.555 14.5511C122.827 16.2816 121.856 18.6277 121.857 21.0735C121.857 18.6274 120.886 16.2814 119.157 14.551C117.428 12.8206 115.083 11.8473 112.637 11.8452C115.082 11.8438 117.426 10.8719 119.155 9.14308C120.883 7.41427 121.855 5.06991 121.857 2.625C121.858 5.06966 122.829 7.41402 124.557 9.14291C126.286 10.8718 128.63 11.8438 131.074 11.8452Z" fill="white" stroke="black" stroke-linecap="round" stroke-linejoin="round"/>
<path d="M242.409 87.0571C239.963 87.0585 237.617 88.0315 235.888 89.7621C234.159 91.4927 233.188 93.8391 233.189 96.2854C233.19 93.8391 232.219 91.4927 230.49 89.7621C228.761 88.0315 226.415 87.0585 223.969 87.0571C226.414 87.0564 228.759 86.0848 230.488 84.3558C232.217 82.6268 233.188 80.282 233.189 77.8369C233.19 80.282 234.161 82.6268 235.89 84.3558C237.619 86.0848 239.964 87.0564 242.409 87.0571Z" fill="white" stroke="black" stroke-linecap="round" stroke-linejoin="round"/>
<path d="M219.346 194.294C222.895 194.294 225.772 191.417 225.772 187.868C225.772 184.319 222.895 181.441 219.346 181.441C215.796 181.441 212.919 184.319 212.919 187.868C212.919 191.417 215.796 194.294 219.346 194.294Z" fill="white" stroke="black" stroke-linecap="round" stroke-linejoin="round"/>
<path d="M233.189 48.6875C236.738 48.6875 239.616 45.8103 239.616 42.261C239.616 38.7117 236.738 35.8345 233.189 35.8345C229.64 35.8345 226.763 38.7117 226.763 42.261C226.763 45.8103 229.64 48.6875 233.189 48.6875Z" fill="#FA9820" stroke="black" stroke-linecap="round" stroke-linejoin="round"/>
<path d="M151.334 67.6747C153.028 67.6747 154.401 66.3015 154.401 64.6076C154.401 62.9137 153.028 61.5405 151.334 61.5405C149.64 61.5405 148.267 62.9137 148.267 64.6076C148.267 66.3015 149.64 67.6747 151.334 67.6747Z" fill="white" stroke="black" stroke-linecap="round" stroke-linejoin="round"/>
</svg>
