<svg width="290" height="182" viewBox="0 0 290 182" fill="none" xmlns="http://www.w3.org/2000/svg">
<path d="M1 181H289.184" stroke="black" stroke-linecap="round" stroke-linejoin="round"/>
<path d="M246.973 181H45.5449L38.5586 174.779H253.959L246.973 181Z" fill="#FA9820" stroke="black" stroke-linecap="round" stroke-linejoin="round"/>
<path d="M42.0777 50.5166C45.031 50.5166 47.425 48.1225 47.425 45.1693C47.425 42.2161 45.031 39.822 42.0777 39.822C39.1245 39.822 36.7305 42.2161 36.7305 45.1693C36.7305 48.1225 39.1245 50.5166 42.0777 50.5166Z" fill="#87C24C" stroke="black" stroke-linecap="round" stroke-linejoin="round"/>
<path d="M38.5586 99.746C42.2272 99.746 45.2011 96.7721 45.2011 93.1035C45.2011 89.4349 42.2272 86.4609 38.5586 86.4609C34.89 86.4609 31.916 89.4349 31.916 93.1035C31.916 96.7721 34.89 99.746 38.5586 99.746Z" fill="#FFBE6E" stroke="black" stroke-linecap="round" stroke-linejoin="round"/>
<path d="M104.298 70.7969C107.966 70.7969 110.94 67.823 110.94 64.1544C110.94 60.4858 107.966 57.5118 104.298 57.5118C100.629 57.5118 97.6553 60.4858 97.6553 64.1544C97.6553 67.823 100.629 70.7969 104.298 70.7969Z" fill="#FFBE6E" stroke="black" stroke-linecap="round" stroke-linejoin="round"/>
<path d="M77.9647 174.779C97.7848 174.779 113.852 158.711 113.852 138.891C113.852 119.071 97.7848 103.003 77.9647 103.003C58.1446 103.003 42.0771 119.071 42.0771 138.891C42.0771 158.711 58.1446 174.779 77.9647 174.779Z" fill="#5BAB0A" stroke="black" stroke-linecap="round" stroke-linejoin="round"/>
<path d="M81.3358 174.779C101.156 174.779 117.223 158.711 117.223 138.891C117.223 119.071 101.156 103.003 81.3358 103.003C61.5156 103.003 45.4482 119.071 45.4482 138.891C45.4482 158.711 61.5156 174.779 81.3358 174.779Z" fill="#87C24C" stroke="black" stroke-linecap="round" stroke-linejoin="round"/>
<path d="M81.336 169.265C64.5862 169.265 50.9619 155.639 50.9619 138.891C50.9619 122.144 64.5862 108.528 81.336 108.528C98.0858 108.528 111.708 122.141 111.708 138.891C111.708 155.641 98.0835 169.265 81.336 169.265Z" fill="#87C24C" stroke="black" stroke-linecap="round" stroke-linejoin="round"/>
<path d="M100.392 138.889C100.42 141.409 99.9473 143.909 99.002 146.246C98.0566 148.582 96.6573 150.707 94.8849 152.499C93.1126 154.291 91.0025 155.714 88.6767 156.684C86.3509 157.655 83.8557 158.155 81.3354 158.155C78.8151 158.155 76.3199 157.655 73.9941 156.684C71.6683 155.714 69.5582 154.291 67.7859 152.499C66.0135 150.707 64.6142 148.582 63.6689 146.246C62.7235 143.909 62.2509 141.409 62.2785 138.889H100.392Z" fill="white" stroke="black" stroke-linecap="round" stroke-linejoin="round"/>
<path d="M51.2559 134.673C51.1603 135.41 49.2253 152.429 62.7631 162.9C75.2833 172.591 89.8887 168.047 91.0793 167.653C89.1375 167.986 75.124 170.135 63.2616 160.068C51.759 150.316 51.3037 136.728 51.2559 134.673Z" fill="black"/>
<path d="M26.9461 135.672C25.2016 135.673 23.5291 136.367 22.2963 137.601C21.0634 138.836 20.3712 140.509 20.3718 142.253C20.3724 140.509 19.6805 138.836 18.4481 137.602C17.2158 136.368 15.5438 135.674 13.7998 135.672C15.5424 135.671 17.2133 134.978 18.4456 133.746C19.6778 132.514 20.3706 130.843 20.3718 129.1C20.373 130.843 21.0661 132.514 22.2988 133.747C23.5315 134.979 25.203 135.671 26.9461 135.672Z" fill="#FA9820" stroke="black" stroke-linecap="round" stroke-linejoin="round"/>
<path d="M129.491 96.4224C127.747 96.4242 126.075 97.1185 124.843 98.3525C123.61 99.5866 122.918 101.259 122.919 103.004C122.92 101.259 122.227 99.5859 120.995 98.3517C119.762 97.1176 118.089 96.4236 116.345 96.4224C118.086 96.4218 119.756 95.7309 120.988 94.501C122.22 93.2712 122.915 91.6029 122.919 89.8618C122.923 91.6025 123.617 93.2705 124.849 94.5002C126.081 95.73 127.75 96.4212 129.491 96.4224Z" fill="#FA9820" stroke="black" stroke-linecap="round" stroke-linejoin="round"/>
<path d="M66.1248 68.2156C64.3807 68.2168 62.7086 68.9105 61.4758 70.1441C60.243 71.3777 59.5505 73.0504 59.5505 74.7944C59.5511 73.0506 58.8591 71.378 57.6267 70.1442C56.3943 68.9105 54.7223 68.2168 52.9785 68.2156C53.8422 68.215 54.6972 68.0443 55.4949 67.7133C56.2926 67.3822 57.0172 66.8973 57.6275 66.2862C58.2378 65.6751 58.7217 64.9497 59.0516 64.1516C59.3816 63.3535 59.5511 62.4982 59.5505 61.6345C59.5499 62.4984 59.7195 63.3538 60.0496 64.1521C60.3797 64.9504 60.8638 65.6758 61.4743 66.287C62.0848 66.8981 62.8097 67.383 63.6077 67.7139C64.4056 68.0448 65.2609 68.2153 66.1248 68.2156Z" fill="#FA9820" stroke="black" stroke-linecap="round" stroke-linejoin="round"/>
<path d="M196.434 174.772H137.53C137.328 174.771 137.129 174.73 136.944 174.651C136.759 174.572 136.591 174.456 136.451 174.311C136.311 174.166 136.202 173.995 136.13 173.807C136.057 173.619 136.023 173.418 136.03 173.217C136.118 170.337 135.991 172.948 135.979 162.855C135.979 162.455 136.137 162.071 136.418 161.788C136.7 161.504 137.082 161.343 137.482 161.341C145.98 161.341 187.907 161.391 196.441 161.409C196.838 161.41 197.218 161.569 197.498 161.85C197.778 162.132 197.935 162.513 197.934 162.909V173.269C197.934 173.667 197.775 174.049 197.494 174.33C197.213 174.612 196.832 174.771 196.434 174.772Z" fill="#87C24C" stroke="black" stroke-linecap="round" stroke-linejoin="round"/>
<path d="M140.32 164.391V171.733" stroke="#5BAB0A" stroke-width="1.99" stroke-linecap="round" stroke-linejoin="round"/>
<path d="M146.364 164.391V171.733" stroke="#5BAB0A" stroke-width="1.99" stroke-linecap="round" stroke-linejoin="round"/>
<path d="M152.408 164.391V171.733" stroke="#5BAB0A" stroke-width="1.99" stroke-linecap="round" stroke-linejoin="round"/>
<path d="M158.452 164.391V171.733" stroke="#5BAB0A" stroke-width="1.99" stroke-linecap="round" stroke-linejoin="round"/>
<path d="M164.493 164.391V171.733" stroke="#5BAB0A" stroke-width="1.99" stroke-linecap="round" stroke-linejoin="round"/>
<path d="M170.538 164.391V171.733" stroke="#5BAB0A" stroke-width="1.99" stroke-linecap="round" stroke-linejoin="round"/>
<path d="M176.581 164.391V171.733" stroke="#5BAB0A" stroke-width="1.99" stroke-linecap="round" stroke-linejoin="round"/>
<path d="M182.625 164.391V171.733" stroke="#5BAB0A" stroke-width="1.99" stroke-linecap="round" stroke-linejoin="round"/>
<path d="M189.926 164.391V171.733" stroke="#5BAB0A" stroke-width="1.99" stroke-linecap="round" stroke-linejoin="round"/>
<path d="M196.423 161.341H183.812C184.984 161.375 190.657 161.664 194.688 166.222C196.199 167.946 197.272 170.009 197.816 172.236V162.743C197.817 162.559 197.782 162.377 197.713 162.207C197.643 162.037 197.541 161.883 197.411 161.752C197.282 161.622 197.128 161.518 196.958 161.448C196.788 161.377 196.607 161.341 196.423 161.341Z" fill="black"/>
<path d="M189.937 161.341H131.041C130.84 161.341 130.641 161.3 130.455 161.221C130.27 161.142 130.102 161.026 129.962 160.881C129.822 160.736 129.713 160.565 129.641 160.377C129.568 160.188 129.535 159.988 129.541 159.786C129.63 156.909 129.503 159.518 129.491 149.424C129.491 149.025 129.648 148.641 129.93 148.357C130.211 148.073 130.594 147.913 130.994 147.91C139.491 147.91 181.418 147.96 189.953 147.979C190.149 147.979 190.344 148.019 190.525 148.094C190.707 148.17 190.872 148.281 191.01 148.421C191.149 148.56 191.259 148.726 191.334 148.908C191.408 149.09 191.446 149.284 191.446 149.481V159.839C191.446 160.037 191.406 160.232 191.33 160.415C191.254 160.598 191.143 160.763 191.003 160.903C190.863 161.042 190.696 161.153 190.513 161.228C190.33 161.303 190.134 161.342 189.937 161.341Z" fill="#87C24C" stroke="black" stroke-linecap="round" stroke-linejoin="round"/>
<path d="M133.833 150.96V158.302" stroke="#5BAB0A" stroke-width="1.99" stroke-linecap="round" stroke-linejoin="round"/>
<path d="M139.877 150.96V158.302" stroke="#5BAB0A" stroke-width="1.99" stroke-linecap="round" stroke-linejoin="round"/>
<path d="M145.921 150.96V158.302" stroke="#5BAB0A" stroke-width="1.99" stroke-linecap="round" stroke-linejoin="round"/>
<path d="M151.964 150.96V158.302" stroke="#5BAB0A" stroke-width="1.99" stroke-linecap="round" stroke-linejoin="round"/>
<path d="M158.006 150.96V158.302" stroke="#5BAB0A" stroke-width="1.99" stroke-linecap="round" stroke-linejoin="round"/>
<path d="M164.05 150.96V158.302" stroke="#5BAB0A" stroke-width="1.99" stroke-linecap="round" stroke-linejoin="round"/>
<path d="M170.094 150.96V158.302" stroke="#5BAB0A" stroke-width="1.99" stroke-linecap="round" stroke-linejoin="round"/>
<path d="M176.138 150.96V158.302" stroke="#5BAB0A" stroke-width="1.99" stroke-linecap="round" stroke-linejoin="round"/>
<path d="M183.438 150.96V158.302" stroke="#5BAB0A" stroke-width="1.99" stroke-linecap="round" stroke-linejoin="round"/>
<path d="M189.937 147.91H177.326C178.499 147.945 184.171 148.234 188.203 152.791C189.714 154.515 190.787 156.578 191.331 158.805V149.313C191.332 149.129 191.297 148.947 191.227 148.777C191.158 148.607 191.055 148.452 190.926 148.322C190.796 148.191 190.642 148.088 190.473 148.017C190.303 147.947 190.121 147.91 189.937 147.91Z" fill="black"/>
<path d="M198.428 147.91H139.526C139.324 147.91 139.125 147.869 138.94 147.79C138.754 147.711 138.587 147.596 138.447 147.451C138.307 147.306 138.197 147.135 138.124 146.947C138.052 146.759 138.017 146.559 138.023 146.358C138.114 143.478 137.987 146.087 137.976 135.993C137.974 135.593 138.132 135.209 138.414 134.925C138.695 134.641 139.078 134.481 139.478 134.479C147.974 134.479 189.9 134.529 198.437 134.548C198.834 134.549 199.214 134.709 199.493 134.99C199.773 135.272 199.929 135.653 199.928 136.05V146.408C199.928 146.605 199.89 146.8 199.814 146.982C199.739 147.165 199.629 147.33 199.489 147.47C199.35 147.609 199.185 147.72 199.002 147.796C198.82 147.871 198.625 147.91 198.428 147.91Z" fill="#87C24C" stroke="black" stroke-linecap="round" stroke-linejoin="round"/>
<path d="M142.316 137.532V144.871" stroke="#5BAB0A" stroke-width="1.99" stroke-linecap="round" stroke-linejoin="round"/>
<path d="M148.358 137.532V144.871" stroke="#5BAB0A" stroke-width="1.99" stroke-linecap="round" stroke-linejoin="round"/>
<path d="M154.402 137.532V144.871" stroke="#5BAB0A" stroke-width="1.99" stroke-linecap="round" stroke-linejoin="round"/>
<path d="M160.446 137.532V144.871" stroke="#5BAB0A" stroke-width="1.99" stroke-linecap="round" stroke-linejoin="round"/>
<path d="M166.49 137.532V144.871" stroke="#5BAB0A" stroke-width="1.99" stroke-linecap="round" stroke-linejoin="round"/>
<path d="M172.531 137.532V144.871" stroke="#5BAB0A" stroke-width="1.99" stroke-linecap="round" stroke-linejoin="round"/>
<path d="M178.575 137.532V144.871" stroke="#5BAB0A" stroke-width="1.99" stroke-linecap="round" stroke-linejoin="round"/>
<path d="M184.619 137.532V144.871" stroke="#5BAB0A" stroke-width="1.99" stroke-linecap="round" stroke-linejoin="round"/>
<path d="M191.92 137.532V144.871" stroke="#5BAB0A" stroke-width="1.99" stroke-linecap="round" stroke-linejoin="round"/>
<path d="M198.417 134.479H185.806C186.978 134.513 192.653 134.802 196.685 139.36C198.194 141.084 199.267 143.147 199.81 145.374V135.882C199.811 135.698 199.776 135.516 199.707 135.346C199.637 135.175 199.535 135.021 199.405 134.891C199.276 134.76 199.122 134.657 198.952 134.586C198.783 134.516 198.601 134.479 198.417 134.479Z" fill="black"/>
<path d="M189.921 134.479H131.019C130.818 134.479 130.619 134.438 130.433 134.359C130.248 134.28 130.081 134.165 129.941 134.02C129.801 133.875 129.691 133.704 129.619 133.516C129.546 133.329 129.512 133.128 129.519 132.927C129.608 130.047 129.48 132.658 129.469 122.562C129.468 122.364 129.507 122.167 129.583 121.984C129.659 121.8 129.77 121.633 129.91 121.493C130.05 121.352 130.216 121.241 130.4 121.165C130.583 121.088 130.78 121.049 130.978 121.049C139.474 121.049 181.4 121.099 189.937 121.117C190.134 121.117 190.328 121.157 190.509 121.233C190.691 121.309 190.855 121.419 190.994 121.559C191.132 121.698 191.242 121.864 191.317 122.046C191.391 122.228 191.429 122.423 191.428 122.619V132.979C191.428 133.177 191.389 133.372 191.313 133.555C191.237 133.737 191.126 133.903 190.986 134.042C190.846 134.182 190.68 134.292 190.497 134.367C190.314 134.442 190.119 134.48 189.921 134.479Z" fill="#87C24C" stroke="black" stroke-linecap="round" stroke-linejoin="round"/>
<path d="M133.811 124.101V131.44" stroke="#5BAB0A" stroke-width="1.99" stroke-linecap="round" stroke-linejoin="round"/>
<path d="M139.854 124.101V131.44" stroke="#5BAB0A" stroke-width="1.99" stroke-linecap="round" stroke-linejoin="round"/>
<path d="M145.896 124.101V131.44" stroke="#5BAB0A" stroke-width="1.99" stroke-linecap="round" stroke-linejoin="round"/>
<path d="M151.939 124.101V131.44" stroke="#5BAB0A" stroke-width="1.99" stroke-linecap="round" stroke-linejoin="round"/>
<path d="M157.983 124.101V131.44" stroke="#5BAB0A" stroke-width="1.99" stroke-linecap="round" stroke-linejoin="round"/>
<path d="M164.027 124.101V131.44" stroke="#5BAB0A" stroke-width="1.99" stroke-linecap="round" stroke-linejoin="round"/>
<path d="M170.068 124.101V131.44" stroke="#5BAB0A" stroke-width="1.99" stroke-linecap="round" stroke-linejoin="round"/>
<path d="M176.112 124.101V131.44" stroke="#5BAB0A" stroke-width="1.99" stroke-linecap="round" stroke-linejoin="round"/>
<path d="M183.413 124.101V131.44" stroke="#5BAB0A" stroke-width="1.99" stroke-linecap="round" stroke-linejoin="round"/>
<path d="M189.91 121.049H177.301C178.471 121.083 184.146 121.372 188.177 125.929C189.687 127.657 190.759 129.723 191.303 131.953V122.453C191.304 122.269 191.269 122.087 191.2 121.917C191.13 121.747 191.028 121.592 190.898 121.461C190.769 121.331 190.615 121.227 190.445 121.156C190.276 121.085 190.094 121.049 189.91 121.049Z" fill="black"/>
<path d="M196.434 121.049H137.53C137.328 121.048 137.129 121.007 136.944 120.928C136.759 120.85 136.591 120.734 136.451 120.59C136.312 120.445 136.202 120.273 136.13 120.086C136.057 119.898 136.023 119.697 136.03 119.496C136.118 116.616 135.991 119.228 135.979 109.134C135.979 108.734 136.137 108.351 136.418 108.067C136.7 107.783 137.082 107.623 137.482 107.62C145.98 107.62 187.907 107.668 196.441 107.688C196.637 107.689 196.832 107.728 197.014 107.803C197.195 107.879 197.36 107.99 197.499 108.129C197.637 108.268 197.747 108.434 197.822 108.615C197.897 108.797 197.935 108.992 197.934 109.189V119.548C197.934 119.946 197.775 120.327 197.494 120.609C197.213 120.89 196.832 121.048 196.434 121.049Z" fill="#87C24C" stroke="black" stroke-linecap="round" stroke-linejoin="round"/>
<path d="M140.32 110.671V118.012" stroke="#5BAB0A" stroke-width="1.99" stroke-linecap="round" stroke-linejoin="round"/>
<path d="M146.364 110.671V118.012" stroke="#5BAB0A" stroke-width="1.99" stroke-linecap="round" stroke-linejoin="round"/>
<path d="M152.408 110.671V118.012" stroke="#5BAB0A" stroke-width="1.99" stroke-linecap="round" stroke-linejoin="round"/>
<path d="M158.452 110.671V118.012" stroke="#5BAB0A" stroke-width="1.99" stroke-linecap="round" stroke-linejoin="round"/>
<path d="M164.493 110.671V118.012" stroke="#5BAB0A" stroke-width="1.99" stroke-linecap="round" stroke-linejoin="round"/>
<path d="M170.538 110.671V118.012" stroke="#5BAB0A" stroke-width="1.99" stroke-linecap="round" stroke-linejoin="round"/>
<path d="M176.581 110.671V118.012" stroke="#5BAB0A" stroke-width="1.99" stroke-linecap="round" stroke-linejoin="round"/>
<path d="M182.625 110.671V118.012" stroke="#5BAB0A" stroke-width="1.99" stroke-linecap="round" stroke-linejoin="round"/>
<path d="M189.926 110.671V118.012" stroke="#5BAB0A" stroke-width="1.99" stroke-linecap="round" stroke-linejoin="round"/>
<path d="M196.243 107.618H183.812C184.984 107.652 190.657 107.941 194.688 112.501C196.199 114.224 197.272 116.286 197.816 118.513V109.211C197.819 109.003 197.78 108.796 197.702 108.603C197.624 108.41 197.509 108.234 197.363 108.086C197.216 107.937 197.042 107.82 196.85 107.739C196.658 107.659 196.451 107.618 196.243 107.618Z" fill="black"/>
<path d="M240.345 167.059L102.775 29.4915C140.764 -8.49717 202.357 -8.49717 240.345 29.4915C278.332 67.4802 278.332 129.071 240.345 167.059Z" fill="#FA9820" stroke="black" stroke-linecap="round" stroke-linejoin="round"/>
<path d="M249.725 33.3774C257.052 33.3774 262.992 27.4376 262.992 20.1105C262.992 12.7834 257.052 6.84357 249.725 6.84357C242.398 6.84357 236.458 12.7834 236.458 20.1105C236.458 27.4376 242.398 33.3774 249.725 33.3774Z" fill="#FA9820" stroke="black" stroke-linecap="round" stroke-linejoin="round"/>
<path d="M243.854 25.9837C242.693 24.8224 241.902 23.3427 241.581 21.7318C241.261 20.1209 241.425 18.4512 242.054 16.9338C242.683 15.4163 243.747 14.1194 245.113 13.2069C246.478 12.2944 248.084 11.8073 249.726 11.8073C251.369 11.8073 252.974 12.2944 254.34 13.2069C255.706 14.1194 256.77 15.4163 257.398 16.9338C258.027 18.4512 258.191 20.1209 257.871 21.7318C257.551 23.3427 256.76 24.8224 255.598 25.9837C254.04 27.5394 251.928 28.4131 249.726 28.4131C247.524 28.4131 245.412 27.5394 243.854 25.9837Z" fill="white" stroke="black" stroke-linecap="round" stroke-linejoin="round"/>
<path d="M236.681 22.5189C239.134 25.4938 242.261 27.8424 245.801 29.3706C249.342 30.8989 253.195 31.563 257.043 31.3081C256.199 31.8248 251.807 34.388 246.476 32.9721C241.648 31.6905 237.889 27.6476 236.681 22.5189Z" fill="black"/>
<path d="M258.63 54.8461C261.043 66.351 267.191 103.106 245.77 135.658C240.954 142.954 235.124 149.526 228.456 155.179L240.346 167.066C246.314 161.036 263.998 141.627 267.995 110.693C271.492 83.6085 262.554 62.8021 258.63 54.8461Z" fill="black"/>
<path d="M148.718 15.8103C148.411 12.9625 162.335 7.74729 175.302 6.97332C195.375 5.77593 213.09 15.2253 212.676 16.8893C212.562 17.3446 211.132 17.1671 205.032 16.9189C191.373 16.3612 184.544 16.0835 179.283 16.5388C176.845 16.7505 158.887 19.0201 154.789 18.3599C154.088 18.2484 153.348 18.0503 153.348 18.0503C151.996 17.6997 148.809 16.6571 148.718 15.8103Z" fill="white"/>
</svg>
