<svg width="16" height="16" viewBox="0 0 16 16" fill="none" xmlns="http://www.w3.org/2000/svg">
<path d="M14.9016 1.09838C13.4371 -0.366121 11.0628 -0.366121 9.59825 1.09835L6.46406 4.23254C4.94922 5.74745 5.08947 8.1612 6.46406 9.53585C6.69425 9.76604 6.94894 9.95373 7.21787 10.1079L7.7899 9.53585C8.16509 9.1606 8.03303 8.72195 8.02628 8.40542C7.94394 8.34704 7.86384 8.28395 7.7899 8.21001C7.0845 7.50467 7.05278 6.29548 7.7899 5.55835C7.89937 5.44888 10.8576 2.49066 10.924 2.42422C11.6553 1.693 12.8445 1.693 13.5757 2.42422C14.3069 3.15544 14.3069 4.34466 13.5757 5.07588L11.504 7.14754C11.5639 7.47901 11.9235 8.2642 11.7385 9.55945C11.7476 9.55057 11.7584 9.54485 11.7674 9.53589L14.9016 6.4017C16.366 4.9372 16.366 2.56288 14.9016 1.09838Z" fill="#757575"/>
<path d="M9.77868 6.22126C9.54852 5.99107 9.2938 5.80339 9.02493 5.64923L8.4529 6.22126C8.07765 6.59645 8.20971 7.03511 8.21646 7.35164C8.29887 7.41001 8.37896 7.47311 8.4529 7.54704C9.1583 8.25245 9.19002 9.46158 8.4529 10.1987C8.34318 10.3084 5.13993 13.5117 5.07583 13.5758C4.34461 14.307 3.15539 14.307 2.42417 13.5758C1.69295 12.8445 1.69295 11.6553 2.42417 10.9241L4.73877 8.60951C4.67886 8.27805 4.3193 7.49286 4.50427 6.19761C4.49524 6.20648 4.48436 6.21226 4.47536 6.22123L1.09833 9.59833C-0.36611 11.0628 -0.36611 13.4371 1.09833 14.9016C2.56283 16.3661 4.93711 16.3661 6.40161 14.9016L9.77868 11.5246C11.2654 10.0378 11.1842 7.62673 9.77868 6.22126Z" fill="#757575"/>
</svg>
