<svg width="17" height="16" viewBox="0 0 17 16" fill="none" xmlns="http://www.w3.org/2000/svg">
<path d="M13.7333 0H2.26667C1 0 0 1.06667 0 2.26667V13.7333C0 14.9333 1 16 2.26667 16H13.8C15 16 16.0667 15 16.0667 13.7333C16.0667 -5.73333 16.0667 6.46667 16.0667 2.26667C16 1.06667 15 0 13.7333 0ZM2.26667 1.33333H13.8C14.2667 1.33333 14.6667 1.8 14.6667 2.26667V10L12.5333 6.4C12.3333 6.06667 11.9333 5.8 11.4667 5.8C11.0667 5.8 10.6 6 10.4 6.33333L7.8 9.86667L5.66667 7.66667C5.33333 7.33333 5 7.2 4.66667 7.2C4.33333 7.2 3.93333 7.4 3.73333 7.66667L1.33333 10.5333V2.26667C1.33333 1.8 1.73333 1.33333 2.26667 1.33333Z" fill="#757575"/>
</svg>
