<svg width="20" height="16" viewBox="0 0 20 16" fill="none" xmlns="http://www.w3.org/2000/svg">
<path d="M9.561 14.0488H8.19514V1.95122H12.4878V3.05692C12.4878 3.60976 12.9106 4.03253 13.4634 4.03253C14.0163 4.03253 14.4391 3.60976 14.4391 3.05692V0.975612C14.4391 0.422765 14.0163 0 13.4634 0H0.975612C0.422765 0 0 0.422765 0 0.975612V3.05692C0 3.60976 0.422765 4.03253 0.975612 4.03253C1.52846 4.03253 1.95122 3.60976 1.95122 3.05692V1.95122H6.24392V14.0163H4.87806C4.32521 14.0163 3.90245 14.4391 3.90245 14.9919C3.90245 15.5447 4.32521 15.9675 4.87806 15.9675H9.561C10.1138 15.9675 10.5366 15.5447 10.5366 14.9919C10.5366 14.4391 10.0813 14.0488 9.561 14.0488Z" fill="#757575"/>
<path d="M18.2106 4.97559H10.7959C10.2431 4.97559 9.82031 5.39835 9.82031 5.9512V7.28453C9.82031 7.83738 10.2431 8.26015 10.7959 8.26015C11.3488 8.26015 11.7715 7.83738 11.7715 7.28453V6.92681H13.5276V14.0488H13.0073C12.4545 14.0488 12.0317 14.4715 12.0317 15.0244C12.0317 15.5772 12.4545 16 13.0073 16H16.0317C16.5846 16 17.0073 15.5772 17.0073 15.0244C17.0073 14.4715 16.5846 14.0488 16.0317 14.0488H15.4789V6.92681H17.235V7.28453C17.235 7.83738 17.6577 8.26015 18.2106 8.26015C18.7634 8.26015 19.1862 7.83738 19.1862 7.28453V5.9512C19.1862 5.43087 18.7634 4.97559 18.2106 4.97559Z" fill="#757575"/>
</svg>
