<svg width="522" height="220" viewBox="0 0 522 220" fill="none" xmlns="http://www.w3.org/2000/svg">
<path d="M521.69 217.383C521.69 215.948 521.183 214.766 520.529 214.766H1.3928C0.611988 214.766 0 215.948 0 217.383C0 218.818 0.633091 220 1.3928 220H520.529C521.183 220 521.69 218.839 521.69 217.383Z" fill="black"/>
<path d="M398.004 52.948C407.479 45.2665 432.318 55.8813 436.032 60.8406C439.683 65.7154 447.069 117.123 441.624 120.689C436.179 124.255 419.36 131.452 412.354 125.099C405.348 118.747 398.004 52.948 398.004 52.948Z" fill="#5BAB0A"/>
<path d="M389.499 50.2046C389.499 50.2046 373.376 41.9744 371.202 37.8804C369.029 33.7864 359.912 20.0272 359.912 20.0272C359.912 20.0272 355.248 20.6181 354.024 22.7073C355.544 28.384 360.187 44.1058 366.18 48.7274C372.173 53.349 387.979 62.9087 387.979 62.9087L389.499 50.2046Z" fill="#9E693E"/>
<path d="M386.312 147.194C386.312 147.194 385.764 158.379 385.764 165.195C385.764 172.012 396.252 198.728 395.302 202.548C394.353 206.367 405.2 205.84 405.2 205.84C405.2 205.84 405.938 185.096 403.153 175.283C400.367 165.47 403.153 145.295 403.153 145.295L386.312 147.194Z" fill="#9E693E"/>
<path d="M412.628 141.792C412.628 141.792 416.152 160.257 419.022 164.499C421.892 168.741 437.297 197.483 437.297 201.155C437.297 204.827 446.984 201.83 446.984 201.83C446.984 201.83 438.796 170.344 435.525 160.806C433.562 155.129 432.064 149.284 431.03 143.354L412.628 141.792Z" fill="#9E693E"/>
<path d="M386.186 123.475C385.173 129.552 381.121 166.483 381.121 166.483C381.121 166.483 395.007 170.746 403.322 168.846C403.322 168.846 403.089 139.154 404.989 139.154H405.052C407.795 139.196 410.159 141.053 410.834 143.712C412.417 150.107 416.785 169.395 416.785 169.395C416.785 169.395 434.343 166.947 438.163 165.174C438.163 165.174 432.296 123.411 425.902 116.996L418.22 110.095L390.217 106.487C390.195 106.508 386.882 119.17 386.186 123.475Z" fill="#2E3192"/>
<path d="M378.821 214.239H408.598C408.598 214.239 409.21 203.476 407.163 201.429C405.116 199.382 405.664 201.683 402.246 202.991C398.827 204.299 396.611 201.155 395.07 199.593C393.53 198.032 394.627 204.553 388.085 204.553C381.543 204.553 377.323 211.242 378.821 214.239Z" fill="#5BAB0A"/>
<path d="M436.98 199.973C435.44 200.332 430.586 204.278 428.982 208.562C427.378 212.846 427.843 214.366 427.843 214.366C427.843 214.366 432.781 216.56 442.235 215.864C451.689 215.168 450.254 214.133 450.254 214.133C450.254 214.133 449.579 204.405 447.975 201.451C446.371 198.496 439.66 199.361 436.98 199.973Z" fill="#5BAB0A"/>
<path d="M442.13 69.2396C442.13 69.2396 459.118 75.4861 463.592 74.3044C468.066 73.1226 484.379 70.4636 484.379 70.4636C484.379 70.4636 487.101 74.2833 486.405 76.6046C481.213 79.348 466.526 86.6075 459.055 85.3624C451.585 84.1173 433.837 79.0104 433.837 79.0104L442.13 69.2396Z" fill="#9E693E"/>
<path d="M481.509 78.8626C480.432 76.7523 479.377 73.819 478.639 71.6031C480.158 71.4554 481.277 71.2655 481.678 71.0756C483.619 70.1681 486.721 61.748 487.671 61.7902C488.62 61.8324 487.228 66.4751 487.797 66.4962C488.367 66.5173 495.479 60.7351 496.365 61.748C497.252 62.761 490.667 67.0238 491.237 67.6569C491.807 68.29 499.594 63.1197 499.805 64.7446C500.016 66.3696 492.609 68.8597 492.925 69.7883C493.242 70.7168 499.974 68.0156 500.607 68.712C501.24 69.4084 499.657 69.9149 497.864 70.6324C496.07 71.3499 493.516 72.1518 493.875 72.5739C494.234 72.996 499.214 72.0674 499.615 72.996C500.016 73.9245 485.814 76.7312 483.387 78.1029C482.775 78.3983 482.163 78.6516 481.509 78.8626Z" fill="#9E693E"/>
<path d="M455.257 71.7931C455.257 71.7931 453.21 81.5849 446.794 86.0376C439.641 84.2017 432.022 81.1417 431.178 83.7163C430.397 86.0376 430.904 105.094 429.912 115.35C422.23 119.803 386.123 116.869 386.102 112.163C386.081 108.576 394.796 72.6161 389.774 68.6909C387.959 67.2559 372.448 58.9624 372.448 58.9624C372.448 58.9624 378.906 46.2372 382.894 42.2909C382.894 42.2909 390.66 46.3638 398.089 49.3394C407.817 53.2646 416.026 54.3408 421.429 56.8521C440.506 65.7154 443.566 67.3192 455.257 71.7931Z" fill="#FA9820"/>
<path d="M422.251 57.253C417.187 72.3628 423.665 104.566 430.819 112.585C432.887 107.584 424.931 87.346 430.798 61.6425C430.988 60.3341 422.758 55.8602 422.251 57.253Z" fill="#5BAB0A"/>
<path d="M408.155 52.758C400.832 60.6928 389.858 90.2371 389.626 91.7143C389.943 65.9053 399.798 53.6866 401.444 50.6899C402.52 49.9513 408.281 51.9772 408.155 52.758Z" fill="#5BAB0A"/>
<path d="M406.867 45.2242V58.7091C406.867 58.7091 411.805 64.0271 418.221 60.3552L421.175 42.9873L406.867 45.2242Z" fill="#9E693E"/>
<path d="M406.867 52.0195C410.94 53.0536 416.004 51.3231 420.331 47.8622L421.154 42.9663L406.846 45.2032V52.0195H406.867Z" fill="#512607"/>
<path d="M407.479 21.3989C407.479 21.3989 393.551 38.1125 399.903 46.3005C406.255 54.4885 420.626 48.9384 427.759 38.5557C434.892 28.173 410.117 13.6752 407.479 21.3989Z" fill="#9E693E"/>
<path d="M420.859 27.8565C420.859 27.8565 425.966 28.0042 423.961 32.8157C421.956 37.6272 418.305 39.231 420.247 41.1725C421.576 42.502 420.816 45.2243 420.204 46.7859C419.888 47.5878 419.846 48.4953 420.099 49.3183L420.141 49.4238C420.711 51.2809 422.484 52.4838 424.404 52.3149C429.089 51.914 436.918 49.5504 436.496 38.2392C436.496 38.2392 440.4 30.9586 436.517 25.4085C432.634 19.8584 429.701 20.3015 429.701 20.3015C429.701 20.3015 428.308 15.0469 423.982 13.8018C419.656 12.5567 406.973 8.08287 405.58 15.0469C404.187 22.0109 410.349 27.0757 420.859 27.8565Z" fill="black"/>
<path d="M419.486 36.5931C419.845 36.4032 424.994 34.0185 425.754 36.9519C426.45 39.6531 425.48 43.8526 421.786 43.8526C418.093 43.8526 414.844 38.9778 419.486 36.5931Z" fill="#9E693E"/>
<path d="M408.597 214.239C408.597 214.239 408.724 212.002 408.661 209.385C405.157 210.905 386.017 210.651 379.053 210.504C378.441 211.896 378.335 213.268 378.821 214.239H408.597Z" fill="#FFBE6E"/>
<path d="M442.215 215.864C451.669 215.168 450.234 214.133 450.234 214.133C450.234 214.133 450.086 211.897 449.749 209.238C443.164 215.104 432.887 212.108 428.392 210.356C427.527 213.268 427.844 214.366 427.844 214.366C427.844 214.366 432.761 216.56 442.215 215.864Z" fill="#FFBE6E"/>
<path d="M355.692 27.8142C357.971 27.1811 360.841 25.9571 362.972 24.9864C362.065 23.7624 361.432 22.8339 361.284 22.3907C360.651 20.3437 364.703 12.3456 364.027 11.6914C363.352 11.0372 360.883 15.1945 360.482 14.7936C360.081 14.3926 359.49 5.25498 358.14 5.27609C356.789 5.29719 358.14 13.042 357.295 13.0631C356.451 13.0842 354.953 3.86218 353.624 4.81182C352.294 5.76146 355.481 12.8943 354.594 13.2742C353.708 13.654 351.112 6.90102 350.163 6.92213C349.213 6.94323 349.93 8.44155 350.606 10.2353C351.281 12.0291 352.442 14.4559 351.893 14.477C351.344 14.4981 348.643 10.2142 347.694 10.5519C346.744 10.8895 354.32 23.2137 354.974 25.936C355.164 26.5691 355.417 27.2022 355.692 27.8142Z" fill="#9E693E"/>
<path d="M407.985 33.0478C407.69 33.7442 407.057 34.1663 406.593 33.9553C406.128 33.7442 406.002 33.0267 406.318 32.3303C406.635 31.6339 407.247 31.2118 407.711 31.4229C408.175 31.6339 408.281 32.3514 407.985 33.0478Z" fill="black"/>
<path d="M414.106 36.2977C413.81 36.9941 413.177 37.4161 412.713 37.2051C412.248 36.9941 412.122 36.2766 412.438 35.5802C412.755 34.8838 413.367 34.4617 413.831 34.6727C414.295 34.8838 414.422 35.6013 414.106 36.2977Z" fill="black"/>
<path d="M407.162 28.8905C407.162 28.8905 409.483 27.4555 409.842 30.1989C409.23 29.3337 408.217 28.8483 407.162 28.8905Z" fill="black" stroke="black" stroke-linecap="round" stroke-linejoin="round"/>
<path d="M414.105 32.0981C414.105 32.0981 416.385 30.5576 416.828 33.301C416.216 32.4358 415.182 31.9715 414.105 32.0981Z" fill="#020202" stroke="black" stroke-linecap="round" stroke-linejoin="round"/>
<path d="M408.64 35.0104C407.944 36.0022 407.226 37.0152 406.509 38.007C406.213 38.4291 406.319 39.02 406.741 39.3154C406.783 39.3365 406.825 39.3576 406.846 39.3787L407.648 39.8008" stroke="black" stroke-linecap="round" stroke-linejoin="round"/>
<path d="M403.639 42.6708C404.293 43.3672 405.095 43.8736 406.002 44.148C406.72 44.3801 407.501 44.4645 408.26 44.4012" stroke="black" stroke-linecap="round" stroke-linejoin="round"/>
<path d="M224.073 1.54085C217.067 2.91255 189.063 40.4338 189.063 40.4338L188.071 43.0295C188.071 43.0295 238.719 37.395 240.555 35.2425C245.535 29.3758 229.834 0.401278 224.073 1.54085ZM189.443 41.2358C198.686 29.418 219.747 12.1768 224.305 8.50487C228.378 12.6622 234.498 24.8809 235.3 30.4099C229.454 31.6127 204.215 39.442 189.443 41.2358Z" fill="#5BAB0A"/>
<path d="M156.227 7.93506C142.446 -1.05486 138.669 -0.991549 134.659 1.28759C130.65 3.56672 115.835 24.8175 122.462 31.4439C129.088 38.0703 181.571 42.7974 181.571 42.7974L182.753 39.5897C182.732 39.5897 170.007 16.925 156.227 7.93506ZM131.578 29.1015C128.518 26.0415 136.136 13.3374 139.618 10.6363C140.505 10.1298 175.81 32.6046 180.748 40.2861C161.017 38.1336 134.427 31.6338 131.578 29.1015Z" fill="#5BAB0A"/>
<path d="M181.973 52.7369H184.927C187.86 52.7369 190.224 50.3523 190.224 47.4401V38.7456C190.224 35.8123 187.86 33.4487 184.927 33.4487H181.973C179.039 33.4487 176.676 35.8123 176.676 38.7456V47.4401C176.676 50.3734 179.039 52.7369 181.973 52.7369Z" fill="#FA9820"/>
<path d="M293.945 43.1773L53.8343 42.4597C48.0732 42.4386 43.3883 47.1024 43.3672 52.8425C43.3672 53.37 43.4094 53.9187 43.4938 54.4463L47.2079 78.947L59.2367 78.9259L66.4962 202.231C66.876 208.837 72.3417 213.986 78.947 213.986H270.605L278.582 78.4827L289.915 78.4616L293.945 43.1773Z" fill="#305604"/>
<path d="M274.699 213.986H127.611L119.739 45.7307H294.515L287.192 202.273C286.876 208.836 281.368 213.986 274.699 213.986Z" fill="#5BAB0A"/>
<path d="M301.711 78.5249L111.973 79.0314L107.646 42.523H293.628C299.389 42.5441 303.926 47.9465 303.905 53.6866C303.905 53.982 303.884 54.2775 303.863 54.5729L301.711 78.5249Z" fill="#FFBE6E"/>
<path d="M111.994 79.0314L292.953 78.5249L117.734 88.1057L111.994 79.0314Z" fill="#305604"/>
<path d="M188.219 42.8185H183.176V78.8836H188.219V42.8185Z" fill="#5BAB0A"/>
<path d="M204.068 78.6937H197.779V214.218H204.068V78.6937Z" fill="#FFBE6E"/>
</svg>
