<svg width="15" height="16" viewBox="0 0 15 16" fill="none" xmlns="http://www.w3.org/2000/svg">
<path d="M0.9375 9.875C0.419678 9.875 0 10.2947 0 10.8125C0 11.3302 0.419678 11.75 0.9375 11.75H2.78125L2.34375 15.0625C2.34375 15.5802 2.76343 16 3.28125 16C3.79907 16 4.21875 15.5802 4.21875 15.0625L4.65625 11.75H8.40625L7.96875 15.0625C7.96875 15.5802 8.38843 16 8.90625 16C9.42407 16 9.84375 15.5802 9.84375 15.0625L10.2812 11.75H12.1875C12.7053 11.75 13.125 11.3302 13.125 10.8125C13.125 10.2947 12.7053 9.875 12.1875 9.875H10.5312L11.0312 6.125H13.125C13.6428 6.125 14.0625 5.7052 14.0625 5.1875C14.0625 4.66968 13.6428 4.25 13.125 4.25H11.2812L11.7188 0.9375C11.7188 0.419678 11.2991 0 10.7812 0C10.2634 0 9.84375 0.419678 9.84375 0.9375L9.40625 4.25H5.65625L6.09375 0.9375C6.09375 0.419678 5.67407 0 5.15625 0C4.63843 0 4.21875 0.419678 4.21875 0.9375L3.78125 4.25H1.875C1.35718 4.25 0.9375 4.66968 0.9375 5.1875C0.9375 5.7052 1.35718 6.125 1.875 6.125H3.53125L3.03125 9.875H0.9375ZM5.40625 6.125H9.15625L8.65625 9.875H4.90625L5.40625 6.125Z" fill="#757575"/>
</svg>
