<svg width="32" height="31" viewBox="0 0 32 31" fill="none" xmlns="http://www.w3.org/2000/svg">
<path d="M16 11.6601C15.2405 11.6601 14.4981 11.8853 13.8666 12.3072C13.2351 12.7292 12.7429 13.3289 12.4523 14.0306C12.1616 14.7323 12.0856 15.5044 12.2338 16.2492C12.3819 16.9941 12.7477 17.6783 13.2847 18.2154C13.8217 18.7524 14.5059 19.1181 15.2508 19.2663C15.9957 19.4145 16.7678 19.3384 17.4695 19.0478C18.1712 18.7571 18.7709 18.265 19.1928 17.6335C19.6148 17.002 19.84 16.2596 19.84 15.5001C19.84 14.4817 19.4354 13.5049 18.7153 12.7848C17.9951 12.0647 17.0184 11.6601 16 11.6601ZM16 18.0601C15.4937 18.0601 14.9987 17.91 14.5777 17.6287C14.1567 17.3474 13.8286 16.9475 13.6348 16.4798C13.4411 16.012 13.3904 15.4973 13.4892 15.0007C13.5879 14.5041 13.8318 14.0479 14.1898 13.6899C14.5478 13.3319 15.004 13.0881 15.5005 12.9893C15.9971 12.8905 16.5119 12.9412 16.9797 13.135C17.4474 13.3287 17.8472 13.6568 18.1285 14.0778C18.4098 14.4988 18.56 14.9938 18.56 15.5001C18.56 16.179 18.2903 16.8302 17.8102 17.3103C17.3301 17.7904 16.6789 18.0601 16 18.0601ZM20.8704 9.86169C20.7122 9.86169 20.5575 9.90861 20.4259 9.99652C20.2944 10.0844 20.1918 10.2094 20.1313 10.3555C20.0707 10.5017 20.0549 10.6626 20.0858 10.8178C20.1166 10.9729 20.1928 11.1155 20.3047 11.2274C20.4166 11.3393 20.5591 11.4155 20.7143 11.4463C20.8695 11.4772 21.0303 11.4613 21.1765 11.4008C21.3227 11.3402 21.4477 11.2377 21.5356 11.1061C21.6235 10.9746 21.6704 10.8199 21.6704 10.6617C21.6712 10.5564 21.6511 10.452 21.6112 10.3545C21.5713 10.2571 21.5124 10.1686 21.438 10.0941C21.3635 10.0196 21.275 9.96075 21.1775 9.92085C21.0801 9.88095 20.9757 9.86084 20.8704 9.86169ZM26.88 4.62009C25.0927 2.839 22.8941 1.52565 20.4786 0.796125C18.0632 0.066603 15.5052 -0.0566196 13.0307 0.437349C10.5563 0.931318 8.24171 2.02726 6.29149 3.62831C4.34126 5.22936 2.8155 7.2862 1.84906 9.61703C0.882621 11.9478 0.505275 14.4809 0.750376 16.9922C0.995478 19.5035 1.85548 21.9157 3.25436 24.0157C4.65324 26.1157 6.54791 27.8387 8.77091 29.0324C10.9939 30.2262 13.4767 30.8539 16 30.8601C19.0434 30.8676 22.0204 29.9708 24.5533 28.2835C27.0862 26.5963 29.0607 24.1946 30.2264 21.3832C31.3921 18.5719 31.6963 15.4777 31.1005 12.4931C30.5047 9.50862 29.0357 6.76836 26.88 4.62009ZM23.68 19.5641C23.67 20.52 23.2858 21.434 22.6098 22.1099C21.9339 22.7859 21.0199 23.1701 20.064 23.1801H11.9424C10.9859 23.1701 10.0712 22.7862 9.39422 22.1104C8.71722 21.4345 8.33163 20.5206 8.31998 19.5641V11.4425C8.32833 10.4844 8.71266 9.56783 9.39019 8.8903C10.0677 8.21277 10.9842 7.82845 11.9424 7.82009H20.064C21.022 7.82681 21.9388 8.21082 22.6157 8.88888C23.2926 9.56694 23.675 10.4844 23.68 11.4425V19.5641Z" fill="black"/>
</svg>
