<svg width="32" height="33" viewBox="0 0 32 33" fill="none" xmlns="http://www.w3.org/2000/svg">
<circle cx="16" cy="16.5" r="16" fill="black"/>
<path d="M12.4133 23.1175C12.4133 23.3803 12.2003 23.5934 11.9374 23.5934H9.91162C9.64878 23.5934 9.43572 23.3803 9.43572 23.1175V14.6254C9.43572 14.3626 9.64878 14.1495 9.91162 14.1495H11.9374C12.2003 14.1495 12.4133 14.3626 12.4133 14.6254V23.1175ZM10.9245 13.349C9.86165 13.349 9 12.4874 9 11.4245C9 10.3617 9.86165 9.5 10.9245 9.5C11.9874 9.5 12.849 10.3617 12.849 11.4245C12.849 12.4874 11.9874 13.349 10.9245 13.349ZM23 23.1558C23 23.3975 22.8041 23.5934 22.5625 23.5934H20.3886C20.147 23.5934 19.9511 23.3975 19.9511 23.1558V19.1726C19.9511 18.5784 20.1254 16.5687 18.3982 16.5687C17.0585 16.5687 16.7867 17.9442 16.7322 18.5616V23.1558C16.7322 23.3975 16.5363 23.5934 16.2946 23.5934H14.1921C13.9505 23.5934 13.7546 23.3975 13.7546 23.1558V14.5871C13.7546 14.3455 13.9505 14.1495 14.1921 14.1495H16.2946C16.5362 14.1495 16.7322 14.3455 16.7322 14.5871V15.328C17.2289 14.5825 17.9672 14.007 19.5391 14.007C23.02 14.007 23 17.259 23 19.0458V23.1558Z" fill="white"/>
</svg>
