<svg width="22" height="20" viewBox="0 0 22 20" fill="none" xmlns="http://www.w3.org/2000/svg">
<path d="M5.43015 9.47368C4.8081 9.47368 4.19214 9.35116 3.61743 9.11316C3.04274 8.87505 2.52055 8.52611 2.0807 8.0863C1.64084 7.64644 1.29193 7.12425 1.05388 6.54956C0.815834 5.97485 0.693308 5.35889 0.693308 4.73684C0.693308 4.11479 0.815834 3.49883 1.05388 2.92413C1.29193 2.34943 1.64084 1.82724 2.0807 1.38739C2.52055 0.947537 3.04274 0.598621 3.61743 0.360568C4.19214 0.122526 4.8081 0 5.43015 0C6.68643 0 7.89128 0.499063 8.77962 1.38739C9.66794 2.27572 10.167 3.48056 10.167 4.73684C10.167 5.99313 9.66794 7.19797 8.77962 8.0863C7.89128 8.97463 6.68643 9.47368 5.43015 9.47368ZM16.4828 13.6842C15.366 13.6842 14.2951 13.2406 13.5055 12.4509C12.7158 11.6614 12.2723 10.5904 12.2723 9.47368C12.2723 8.35698 12.7158 7.28602 13.5055 6.49639C14.2951 5.70677 15.366 5.26316 16.4828 5.26316C17.5995 5.26316 18.6705 5.70677 19.46 6.49639C20.2497 7.28602 20.6933 8.35698 20.6933 9.47368C20.6933 10.5904 20.2497 11.6614 19.46 12.4509C18.6705 13.2406 17.5995 13.6842 16.4828 13.6842ZM16.4828 14.7368C17.7391 14.7368 18.9439 15.2359 19.8323 16.1242C20.7206 17.0125 21.2196 18.2174 21.2196 19.4737V20H11.7459V19.4737C11.7459 18.2174 12.245 17.0125 13.1333 16.1242C14.0216 15.2359 15.2265 14.7368 16.4828 14.7368ZM5.43015 10.5263C6.12132 10.5263 6.80572 10.6624 7.44428 10.9269C8.08282 11.1915 8.66299 11.5792 9.15173 12.0679C9.64047 12.5566 10.0282 13.1368 10.2927 13.7754C10.5572 14.4139 10.6933 15.0983 10.6933 15.7895V20H0.166992V15.7895C0.166992 14.3936 0.721497 13.0548 1.70854 12.0679C2.69557 11.0808 4.03428 10.5263 5.43015 10.5263Z" fill="white"/>
</svg>
