<svg width="12" height="12" viewBox="0 0 12 12" fill="none" xmlns="http://www.w3.org/2000/svg">
<path d="M5.99999 0C5.52659 0 5.14285 0.383764 5.14285 0.857142V5.14285H0.857142C0.383764 5.14285 0 5.52661 0 6.00001C0 6.47341 0.383764 6.85715 0.857142 6.85715H5.14285V11.1429C5.14285 11.6162 5.52659 12 5.99999 12C6.47339 12 6.85714 11.6162 6.85714 11.1429V6.85715H11.1428C11.6162 6.85715 12 6.47341 12 6.00001C12 5.52661 11.6162 5.14285 11.1428 5.14285H6.85714V0.857142C6.85714 0.383764 6.47339 0 5.99999 0Z" fill="#757575"/>
</svg>
