<svg width="16" height="16" viewBox="0 0 16 16" fill="none" xmlns="http://www.w3.org/2000/svg">
<path d="M11 0H2C0.897 0 0 0.897 0 2V8C0 9.103 0.897 10 2 10V12.5C2 12.695 2.114 12.873 2.291 12.954C2.358 12.985 2.429 13 2.5 13C2.617 13 2.733 12.959 2.825 12.88L6.185 10H11C12.103 10 13 9.103 13 8V2C13 0.897 12.103 0 11 0Z" fill="#757575"/>
<path d="M13.9995 3V8C13.9995 9.654 12.6535 11 10.9995 11H6.55447L4.35547 12.884C4.55947 12.954 4.77347 13 4.99947 13H9.81447L13.1735 15.88C13.2665 15.959 13.3825 16 13.4995 16C13.5705 16 13.6425 15.985 13.7085 15.954C13.8865 15.873 13.9995 15.695 13.9995 15.5V13C15.1025 13 15.9995 12.103 15.9995 11V5C15.9995 3.897 15.1025 3 13.9995 3Z" fill="#757575"/>
</svg>
