<svg width="32" height="31" viewBox="0 0 32 31" fill="none" xmlns="http://www.w3.org/2000/svg">
<path d="M26.88 4.62023C24.3719 2.10343 21.0688 0.534005 17.5334 0.179294C13.998 -0.175416 10.449 0.70653 7.49089 2.6749C4.53279 4.64327 2.3486 7.5763 1.31037 10.9744C0.272143 14.3724 0.444105 18.0254 1.79696 21.3109C3.14982 24.5964 5.59989 27.3113 8.72982 28.993C11.8598 30.6748 15.4759 31.2195 18.9624 30.5342C22.4488 29.8489 25.5898 27.9761 27.8504 25.2349C30.111 22.4936 31.3513 19.0534 31.36 15.5002C31.3649 13.4813 30.9718 11.4811 30.2031 9.61425C29.4344 7.74735 28.3051 6.05032 26.88 4.62023ZM22.24 12.3578V12.7674C22.2419 13.4133 22.1711 14.0574 22.0288 14.6874C21.5942 16.7276 20.4615 18.5522 18.8258 19.8467C17.1902 21.1411 15.1542 21.8244 13.0688 21.7786C11.3228 21.7803 9.61208 21.2877 8.13437 20.3578C8.39159 20.3857 8.65005 20.4007 8.90877 20.4026C10.3515 20.4048 11.754 19.9275 12.896 19.0458C12.2292 19.0317 11.583 18.812 11.0458 18.4168C10.5085 18.0216 10.1064 17.4702 9.89437 16.8378C10.0916 16.8841 10.2934 16.9077 10.496 16.9082C10.7928 16.9072 11.088 16.8641 11.3728 16.7802C10.8466 16.6777 10.3546 16.4447 9.94197 16.1025C9.52934 15.7603 9.20927 15.3199 9.01117 14.8218C8.86096 14.4609 8.78479 14.0735 8.78717 13.6826V13.6442C9.23353 13.888 9.73156 14.0218 10.24 14.0346C9.80245 13.7476 9.44302 13.3564 9.19392 12.8962C8.94483 12.436 8.81387 11.9211 8.81277 11.3978C8.81958 10.8374 8.97174 10.2883 9.25437 9.80423C10.0672 10.7898 11.078 11.5937 12.2213 12.1637C13.3646 12.7337 14.6149 13.0571 15.8912 13.113C15.8325 12.8763 15.8003 12.6337 15.7952 12.3898C15.8089 11.7496 16.0125 11.1279 16.3802 10.6036C16.7478 10.0792 17.2629 9.67595 17.8602 9.44488C18.4574 9.2138 19.1098 9.16535 19.7346 9.30567C20.3595 9.446 20.9285 9.76877 21.3696 10.233C22.0903 10.0898 22.7824 9.82815 23.4176 9.45863C23.174 10.1987 22.6688 10.8245 21.9968 11.2186C22.6322 11.1389 23.2529 10.9687 23.84 10.713C23.4081 11.3516 22.8664 11.9085 22.24 12.3578Z" fill="black"/>
</svg>
