<svg width="22" height="22" viewBox="0 0 22 22" fill="none" xmlns="http://www.w3.org/2000/svg">
<path d="M0.468262 21.5305L1.94934 16.122C1.03575 14.5391 0.555206 12.7434 0.555878 10.9038C0.558228 5.14888 5.24149 0.466797 10.9963 0.466797C13.7889 0.467972 16.4102 1.55495 18.3814 3.52782C20.3524 5.50069 21.4375 8.12312 21.4365 10.9122C21.434 16.667 16.7501 21.3498 10.9963 21.3498C10.9959 21.3498 10.9964 21.3498 10.9963 21.3498H10.9917C9.24446 21.3491 7.52773 20.9109 6.00284 20.0792L0.468262 21.5305ZM6.25914 18.1897L6.5762 18.3775C7.90823 19.1681 9.43547 19.5862 10.9929 19.5871H10.9963C15.7789 19.5871 19.6716 15.695 19.6736 10.9116C19.6745 8.59343 18.7728 6.4136 17.1344 4.77391C15.4959 3.13422 13.3174 2.2307 10.9995 2.22969C6.21298 2.22969 2.32045 6.12122 2.3186 10.9045C2.31793 12.5437 2.77649 14.1399 3.64526 15.5213L3.85172 15.8496L2.97488 19.0508L6.25914 18.1897Z" fill="white"/>
<path fill-rule="evenodd" clip-rule="evenodd" d="M8.38683 6.54184C8.19145 6.10746 7.98567 6.09873 7.7997 6.09117C7.64763 6.08463 7.47357 6.08496 7.29985 6.08496C7.12596 6.08496 6.84331 6.15042 6.60429 6.41143C6.36511 6.67243 5.69104 7.30353 5.69104 8.58705C5.69104 9.87075 6.62595 11.111 6.75636 11.2852C6.88678 11.4592 8.56105 14.1774 11.2125 15.223C13.4162 16.0922 13.8645 15.9193 14.3429 15.8758C14.8212 15.8323 15.8862 15.2447 16.1036 14.6356C16.3211 14.0265 16.3211 13.5045 16.2558 13.3952C16.1905 13.2866 16.0166 13.2213 15.7558 13.0909C15.495 12.9605 14.2124 12.3292 13.9733 12.2423C13.7341 12.1551 13.5602 12.1118 13.3863 12.373C13.2122 12.6338 12.7127 13.2213 12.5605 13.3952C12.4083 13.5696 12.256 13.5914 11.9952 13.4608C11.7344 13.3301 10.8941 13.0548 9.89745 12.166C9.12199 11.4747 8.59831 10.6207 8.44608 10.3595C8.29401 10.0987 8.44356 9.96978 8.56071 9.82727C8.7717 9.57064 9.12569 9.10923 9.21263 8.93534C9.29958 8.76111 9.2561 8.60887 9.19098 8.47829C9.12569 8.34787 8.61862 7.0578 8.38683 6.54184Z" fill="white"/>
</svg>
